<?xml version="1.0" encoding="UTF-8" standalone="no"?>
<!-- Created with Inkscape (http://www.inkscape.org/) -->

<svg
   xmlns:dc="http://purl.org/dc/elements/1.1/"
   xmlns:cc="http://creativecommons.org/ns#"
   xmlns:rdf="http://www.w3.org/1999/02/22-rdf-syntax-ns#"
   xmlns:svg="http://www.w3.org/2000/svg"
   xmlns="http://www.w3.org/2000/svg"
   xmlns:xlink="http://www.w3.org/1999/xlink"
   xmlns:sodipodi="http://sodipodi.sourceforge.net/DTD/sodipodi-0.dtd"
   xmlns:inkscape="http://www.inkscape.org/namespaces/inkscape"
   version="1.1"
   id="svg4518"
   width="256"
   height="256"
   viewBox="0 0 256 256"
   sodipodi:docname="nativity.svg"
   inkscape:version="0.92.3 (2405546, 2018-03-11)"
   inkscape:export-filename="C:\Users\simon\git\xmas-preset\icons\png\nativity.png"
   inkscape:export-xdpi="7.9330702"
   inkscape:export-ydpi="7.9330702">
  <metadata
     id="metadata4524">
    <rdf:RDF>
      <cc:Work
         rdf:about="">
        <dc:format>image/svg+xml</dc:format>
        <dc:type
           rdf:resource="http://purl.org/dc/dcmitype/StillImage" />
        <dc:title />
      </cc:Work>
    </rdf:RDF>
  </metadata>
  <defs
     id="defs4522">
    <filter
       id="C"
       width="1.1003"
       height="1.3605"
       x="-0.050145"
       y="-0.18024001">
      <feGaussianBlur
         stdDeviation=".84506935"
         id="feGaussianBlur4964" />
    </filter>
    <linearGradient
       xlink:href="#b"
       id="D"
       x1="4.625"
       x2="20.25"
       y1="43.125"
       y2="6.375"
       gradientTransform="matrix(0.92004,0,0,0.92004,1.8233,1006.3)"
       gradientUnits="userSpaceOnUse" />
    <linearGradient
       id="b">
      <stop
         offset="0"
         stop-color="#286325"
         id="stop5020" />
      <stop
         offset="1"
         stop-color="#7ed249"
         id="stop5022" />
    </linearGradient>
    <linearGradient
       xlink:href="#b"
       id="E"
       x1="17.375"
       x2="27.875"
       y1="9.5"
       y2="25"
       gradientTransform="matrix(0.92004,0,0,0.92004,1.8233,1006.3)"
       gradientUnits="userSpaceOnUse" />
    <linearGradient
       xlink:href="#b"
       id="F"
       x1="24.5"
       x2="46.5"
       y1="1050.9"
       y2="1018.9"
       gradientTransform="matrix(0.92004,0,0,0.92004,1.8233,82.241)"
       gradientUnits="userSpaceOnUse" />
    <linearGradient
       xlink:href="#d"
       id="G"
       x1="9.6014004"
       x2="18.458"
       y1="1044.1"
       y2="1029.1"
       gradientTransform="matrix(0.92004,0,0,0.92004,1.3633,83.621)"
       gradientUnits="userSpaceOnUse" />
    <linearGradient
       id="d">
      <stop
         offset="0"
         stop-color="#ff9b24"
         id="stop5034" />
      <stop
         offset="1"
         stop-color="#ffbf00"
         id="stop5036" />
    </linearGradient>
    <linearGradient
       xlink:href="#d"
       id="H"
       x1="35.75"
       x2="38.688"
       y1="1044"
       y2="1019.4"
       gradientTransform="matrix(0.92004,0,0,0.92004,1.3633,83.621)"
       gradientUnits="userSpaceOnUse" />
    <filter
       id="I"
       width="1.2473"
       height="1.1594"
       x="-0.12364"
       y="-0.079700999">
      <feGaussianBlur
         stdDeviation=".35516817"
         id="feGaussianBlur4949" />
    </filter>
    <linearGradient
       xlink:href="#d"
       id="J"
       x1="16.138"
       x2="32.825001"
       y1="15.367"
       y2="15.367"
       gradientTransform="matrix(0.92004,0,0,0.92004,1.8233,1006.3)"
       gradientUnits="userSpaceOnUse" />
    <linearGradient
       xlink:href="#d"
       id="K"
       x1="14.64"
       x2="40.105999"
       y1="1018"
       y2="1018"
       gradientTransform="matrix(0.92004,0,0,0.92004,1.3633,83.621)"
       gradientUnits="userSpaceOnUse" />
    <linearGradient
       xlink:href="#d"
       id="L"
       x1="11.875"
       x2="23.323999"
       y1="1019"
       y2="1009.2"
       gradientTransform="matrix(0.92004,0,0,0.92004,1.3633,81.237)"
       gradientUnits="userSpaceOnUse" />
    <linearGradient
       xlink:href="#d"
       id="M"
       x1="29.75"
       x2="38.449001"
       y1="8.875"
       y2="11.688"
       gradientTransform="matrix(0.92004,0,0,0.92004,1.3633,1005.3)"
       gradientUnits="userSpaceOnUse" />
    <linearGradient
       xlink:href="#d"
       id="N"
       x1="22.25"
       x2="26.188"
       y1="10.906"
       y2="15.906"
       gradientUnits="userSpaceOnUse" />
    <filter
       id="O"
       width="1.4209"
       height="1.2275"
       x="-0.21046001"
       y="-0.11376">
      <feGaussianBlur
         stdDeviation=".43846572"
         id="feGaussianBlur4952" />
    </filter>
    <filter
       id="P"
       width="1.472"
       height="1.4516"
       x="-0.23598"
       y="-0.22578">
      <feGaussianBlur
         stdDeviation=".40360182"
         id="feGaussianBlur4955" />
    </filter>
    <filter
       id="Q"
       width="1.2661999"
       height="1.4411"
       x="-0.13309"
       y="-0.22055">
      <feGaussianBlur
         stdDeviation=".40204327"
         id="feGaussianBlur4958" />
    </filter>
    <filter
       id="R"
       width="1.3027"
       height="1.4173"
       x="-0.15136001"
       y="-0.20863">
      <feGaussianBlur
         stdDeviation=".40204327"
         id="feGaussianBlur4961" />
    </filter>
  </defs>
  <sodipodi:namedview
     pagecolor="#ffffff"
     bordercolor="#666666"
     borderopacity="1"
     objecttolerance="10"
     gridtolerance="10"
     guidetolerance="10"
     inkscape:pageopacity="0"
     inkscape:pageshadow="2"
     inkscape:window-width="1387"
     inkscape:window-height="849"
     id="namedview4520"
     showgrid="false"
     inkscape:zoom="0.90028971"
     inkscape:cx="128"
     inkscape:cy="166.05882"
     inkscape:window-x="2287"
     inkscape:window-y="105"
     inkscape:window-maximized="1"
     inkscape:current-layer="svg4518" />
  <g
     transform="translate(-309.41329,-276.3206)"
     id="Layer_2"
     style="fill:#f0f0ec;fill-opacity:1"
     inkscape:export-filename="C:\Users\simon\git\xmas-preset\icons\png\Layer_2.png"
     inkscape:export-xdpi="7.4369802"
     inkscape:export-ydpi="7.4369802">
    <g
       id="g1327"
       style="fill:#f0f0ec;fill-opacity:1">
      <path
         inkscape:connector-curvature="0"
         id="path1329"
         d="M 66.275,1.768 C 24.94,1.768 1.704,23.139 1.704,66.804 v 450.123 c 0,40.844 20.895,62.229 62.192,62.229 H 515.92 c 41.307,0 62.229,-20.315 62.229,-62.229 V 66.804 c 0,-42.601 -20.923,-65.036 -63.521,-65.036 -0.004,0 -448.495,-0.143 -448.353,0 z"
         style="fill:#f0f0ec;fill-opacity:1;stroke:#eeeeee;stroke-width:3.40799999" />
    </g>
  </g>
  <ellipse
     cx="31.380939"
     cy="-194.25536"
     rx="36.93177"
     ry="39.072666"
     id="ellipse883"
     style="stroke-width:5.20899391" />
  <path
     d="m -87.108046,-15.644149 c 0.447973,15.2727704 2.000253,54.272509 2.932663,98.762528 5.292338,-0.750095 20.747424,-1.276204 26.987799,-1.521026 -2.864947,-85.2868608 -18.085628,-172.006195 -18.887813,-186.700763 -1.547071,-28.15462 -7.855163,-80.84359 -61.122333,-80.84359 -48.62596,0 -58.98665,53.48074 -66.75326,98.965677 -14.08512,82.536511 -29.23288,302.439403 -24.88337,342.908083 h 33.66573 c -3.11498,-53.84016 -4.24533,-204.81765 1.29183,-263.3459076 5.53716,-58.5334664 19.9244,-70.6652144 54.73611,-70.6652144 38.14026,0 50.923128,24.987545 52.032644,62.440213 z M -169.07157,-128.15842 c 0,-18.61695 14.26744,-33.71782 31.87905,-33.71782 17.6116,0 31.88425,15.10087 31.88425,33.71782 0,18.63257 -14.27265,33.733444 -31.88425,33.733444 -17.61161,0 -31.87905,-15.100874 -31.87905,-33.733444 z"
     id="path885"
     inkscape:connector-curvature="0"
     style="stroke-width:5.20899391" />
  <path
     d="m 163.37164,-204.39205 c -5.69343,0 -10.87117,2.45344 -15.36653,7.28738 -15.06962,16.19476 -23.72176,63.88311 -25.96163,142.335766 -9.60538,4.693304 -19.12221,10.641975 -25.133392,11.006605 -0.364629,-10.089822 -0.666751,-18.195017 -0.838648,-23.700924 -1.39601,-44.604617 -17.476175,-72.451897 -65.497892,-72.451897 -43.838894,0 -61.960985,12.54326 -68.930619,82.244806 -3.135814,31.368563 -4.573496,85.03162 -4.849573,140.418854 15.798879,2.234659 32.165538,6.297674 34.2178821,2.187778 C -6.1967411,79.357485 22.187068,34.992482 73.646721,59.370575 86.893193,65.636995 95.269255,76.190417 100.447,88.343 100.01986,54.750197 99.113493,21.699129 98.217546,-5.8304044 c 7.750984,-2.0106717 15.788464,-5.5059066 23.242534,-9.7824906 -0.17711,68.14406 3.47961,154.634195 10.99618,259.298515 0.37505,5.28713 0.67717,9.54809 0.89074,12.63181 0.19794,2.95871 2.66701,5.22983 5.59446,5.22983 0.11981,0 0.25003,-0.005 0.37505,-0.0104 3.09935,-0.21356 5.42777,-2.89099 5.22462,-5.97471 -0.20836,-3.09414 -0.5209,-7.37073 -0.90116,-12.67869 -8.41252,-117.16591 -11.30351,-203.057011 -10.86075,-265.997287 14.94981,-11.345189 24.2062,-25.065679 16.76254,-33.40007 -3.96925,-4.45369 -9.71998,-4.589124 -16.08016,-2.818066 2.91704,-90.344797 13.9601,-120.655927 22.75809,-130.110257 2.32322,-2.50031 4.66726,-3.71922 7.15195,-3.71922 9.08449,0 16.02808,2.30238 16.02808,31.30085 0,3.10456 2.50552,5.61008 5.61009,5.61008 3.09935,0 5.61008,-2.50552 5.61008,-5.61008 0.005,-22.10177 -3.3025,-42.53144 -27.24825,-42.53144 z"
     id="path887"
     inkscape:connector-curvature="0"
     style="stroke-width:5.20899391;fill:#646464;fill-opacity:1" />
  <path
     d="M 12.248307,149.40804 C -2.9984187,92.515404 -29.491363,98.083819 -76.387937,98.083819 c -42.995033,0 -77.087903,21.789221 -84.208603,46.214191 42.03138,11.24622 107.711585,15.14776 172.844847,5.11003 z"
     id="path889"
     inkscape:connector-curvature="0"
     style="stroke-width:5.20899391;fill:#969696;fill-opacity:1;stroke:none;stroke-opacity:1" />
  <path
     d="m 13.847468,160.94075 c -65.133262,10.04294 -130.813468,6.1362 -172.834428,-5.10481 -6.63105,-1.78148 -12.68911,-3.73485 -18.04395,-5.8497 -2.7816,52.97026 58.54909,96.18407 86.427629,105.94052 H -9.749275 C 44.611787,237.80467 82.752042,180.06818 90.612414,141.6258 66.166605,150.61132 40.048709,156.89857 13.847468,160.94075 Z"
     id="path891"
     inkscape:connector-curvature="0"
     style="stroke-width:5.20899391;fill:#a87226;fill-opacity:1" />
  <circle
     cx="42.814678"
     cy="105.67334"
     r="35.634727"
     id="circle893"
     style="stroke-width:5.20899391" />
</svg>
