<?xml version="1.0" encoding="UTF-8" standalone="no"?>
<!-- Generator: Adobe Illustrator 15.0.0, SVG Export Plug-In . SVG Version: 6.00 Build 0)  -->

<svg
   xmlns:osb="http://www.openswatchbook.org/uri/2009/osb"
   xmlns:dc="http://purl.org/dc/elements/1.1/"
   xmlns:cc="http://creativecommons.org/ns#"
   xmlns:rdf="http://www.w3.org/1999/02/22-rdf-syntax-ns#"
   xmlns:svg="http://www.w3.org/2000/svg"
   xmlns="http://www.w3.org/2000/svg"
   xmlns:xlink="http://www.w3.org/1999/xlink"
   xmlns:sodipodi="http://sodipodi.sourceforge.net/DTD/sodipodi-0.dtd"
   xmlns:inkscape="http://www.inkscape.org/namespaces/inkscape"
   version="1.1"
   x="0px"
   y="0px"
   width="580px"
   height="580px"
   viewBox="0 0 580 580"
   enable-background="new 0 0 580 580"
   xml:space="preserve"
   id="svg2"
   inkscape:version="0.48.4 r9939"
   sodipodi:docname="pyramid.svg"
   inkscape:export-filename="C:\Users\simon\git\xmas-preset\icons\png\pyramid.png"
   inkscape:export-xdpi="7.4369802"
   inkscape:export-ydpi="7.4369802"><metadata
   id="metadata23"><rdf:RDF><cc:Work
       rdf:about=""><dc:format>image/svg+xml</dc:format><dc:type
         rdf:resource="http://purl.org/dc/dcmitype/StillImage" /><dc:title></dc:title></cc:Work></rdf:RDF></metadata><defs
   id="defs21"><linearGradient
   inkscape:collect="always"
   id="linearGradient5725"><stop
     style="stop-color:#e1e1e1;stop-opacity:1;"
     offset="0"
     id="stop5727" /><stop
     style="stop-color:#e1e1e1;stop-opacity:0;"
     offset="1"
     id="stop5729" /></linearGradient><linearGradient
   id="linearGradient5713"
   osb:paint="solid"><stop
     style="stop-color:#e1e1e1;stop-opacity:1;"
     offset="0"
     id="stop5715" /></linearGradient><pattern
   inkscape:collect="always"
   xlink:href="#pattern5253"
   id="pattern5258"
   patternTransform="matrix(1.8791263,0,0,1.8791263,1.953125e-6,-1.1279297e-6)" /><pattern
   inkscape:collect="always"
   xlink:href="#pattern5246"
   id="pattern5253"
   patternTransform="matrix(1.8791263,0,0,1.8791263,-496.177,188.20378)" /><pattern
   inkscape:collect="always"
   xlink:href="#pattern5244"
   id="pattern5249"
   patternTransform="matrix(0.15650857,0,0,0.15650857,1.953125e-6,-1.1279297e-6)" /><pattern
   inkscape:collect="always"
   xlink:href="#pattern5223"
   id="pattern5244"
   patternTransform="matrix(0.15650857,0,0,0.15650857,-496.177,188.20378)" />
	

		
		
		
		
	<pattern
   patternUnits="userSpaceOnUse"
   width="410.44205"
   height="285.26203"
   patternTransform="translate(-70.173769,240.99381)"
   id="pattern5223"><g
     transform="translate(-8.9021958,-24.39422)"
     id="layer1"><path
       id="path1309"
       style="fill:#d00000;fill-opacity:1;fill-rule:evenodd;stroke:#000000;stroke-width:0.83349466px;stroke-linecap:butt;stroke-linejoin:miter;stroke-opacity:1"
       d="m 234.10295,28.783327 c -28.10056,7.733968 -56.90414,23.114414 -77.16658,38.006479 -20.26243,14.892057 -73.190777,52.416304 -85.274538,64.306944 -11.715979,11.52873 -25.555008,15.55018 -31.610801,29.75626 -2.335424,5.47857 15.83661,22.00519 19.397534,23.721 9.241286,4.45282 24.304529,-3.44276 31.177964,-3.91429 22.307191,-1.53031 45.167011,-4.49872 67.760351,10.79277 -4.18054,4.22051 2.45801,-0.32326 -6.08769,36.69347 -3.01352,13.05342 -9.59873,46.91908 -1.50714,53.3804 8.03941,6.41966 12.94944,-18.60581 20.93693,-14.77435 -0.004,0.006 -0.002,0.0211 -0.005,0.0264 -0.002,0.005 -0.004,0.0222 -0.005,0.0264 4.7e-4,0.004 -0.006,0.0233 -0.005,0.0264 0.003,0.003 0.0211,0.003 0.0249,0.005 0.0243,0.007 0.0777,0.004 0.12879,-0.002 0.015,0.007 0.0346,0.002 0.0497,0.01 0.0565,0.0271 0.1079,0.0591 0.16488,0.0866 l 0.0475,-0.12728 c 3.78138,-0.97727 33.26276,-13.96581 60.17617,-8.74298 15.17141,2.94415 39.36936,-5.30957 53.29004,-9.61521 22.07602,-6.82803 53.06775,-12.99841 72.72796,-13.35072 14.48306,-0.25953 27.58714,-8.45898 41.52062,-9.41484 8.22039,-0.56393 0.59821,-27.06599 0.4283,-29.86559 -0.81659,-13.45508 -17.56507,-34.13032 -26.19103,-52.50369 -8.62596,-18.37338 -23.08213,-41.697 -39.00385,-59.986157 -15.92034,-18.289939 -37.40028,-41.972174 -52.5239,-49.259355 -15.12361,-7.287181 -17.9532,-13.675443 -48.45111,-5.281661 z"
       inkscape:connector-curvature="0" /><path
       id="path5882"
       style="opacity:0.10112359;fill:#0e0000;fill-opacity:1;fill-rule:evenodd;stroke:none"
       d="m 166.95567,93.343683 c -18.23272,4.41659 -33.84758,62.691407 -56.31899,72.821827 -14.697321,6.62576 -54.749039,16.69269 -51.188115,18.4085 9.241286,4.45282 24.304529,-3.44276 31.177964,-3.91429 22.307191,-1.53031 45.167011,-4.49872 67.760351,10.79277 -4.18054,4.22051 2.45801,-0.32326 -6.08769,36.69347 -3.01352,13.05342 -9.59873,46.91908 -1.50714,53.3804 8.03941,6.41966 12.94944,-18.60581 20.93693,-14.77435 -0.004,0.006 -0.002,0.0211 -0.005,0.0264 -0.002,0.005 -0.004,0.0222 -0.005,0.0264 4.7e-4,0.004 -0.006,0.0233 -0.005,0.0264 0.003,0.003 0.0211,0.003 0.0249,0.005 0.0243,0.007 0.0777,0.004 0.12879,-0.002 0.015,0.007 0.0346,0.002 0.0497,0.01 0.0565,0.0271 0.1079,0.0591 0.16488,0.0866 l 0.0475,-0.12728 c 3.78138,-0.97727 33.26276,-13.96581 60.17617,-8.74298 15.17141,2.94415 39.36936,-5.30957 53.29004,-9.61521 22.07602,-6.82803 53.06775,-12.99841 72.72796,-13.35072 14.48306,-0.25953 27.58714,-8.45898 41.52062,-9.41484 8.22039,-0.56393 -51.08531,4.52064 -27.44964,-12.57577 10.48531,-7.58433 -104.98388,15.80767 -149.31404,-34.77677 -43.89537,-50.0883 -37.45534,-89.505577 -56.12656,-84.982777 z"
       inkscape:connector-curvature="0" /><path
       id="path5878"
       style="opacity:0.26966289;fill:#000000;fill-opacity:1;fill-rule:evenodd;stroke:#000000;stroke-width:0.83016068;stroke-linecap:butt;stroke-linejoin:miter;stroke-miterlimit:4;stroke-opacity:1;stroke-dasharray:none"
       d="m 41.923132,154.63221 c 3.550897,2.3529 27.397959,32.51694 30.215216,30.40575 0.340584,-3.33088 -2.440653,-4.64208 -4.39708,-5.02241 2.619616,-3.32925 3.113447,-6.81056 -1.432527,-7.10965 -5.040198,-0.88997 -10.542525,-1.51433 -5.132485,-6.93595 2.497843,-3.03871 -0.167946,-8.43506 -1.701721,-11.17993 -4.029518,-2.17638 -7.065984,-6.11435 -8.717627,-8.79126"
       inkscape:connector-curvature="0" /><path
       id="path5003"
       style="opacity:0.294045;fill:#000000;fill-opacity:1;fill-rule:evenodd;stroke:#000000;stroke-width:0.60142648px;stroke-linecap:butt;stroke-linejoin:miter;stroke-opacity:1"
       d="m 365.59735,219.58638 c -7.45124,-2.6426 -16.80117,-5.69478 -23.38958,-5.28735 -4.52499,-3.82248 -7.99822,0.88787 -11.91885,2.14156 -0.65797,-7.35971 -11.51071,3.11231 -16.29132,3.17249 -3.39452,1.94833 -1.05481,-5.80054 -7.13354,-2.85309 -7.55754,0.71399 -12.23241,1.23324 -17.83876,3.66049 -1.34666,8.01279 -13.44905,12.52661 -15.26046,3.7443 -6.59856,2.87141 -18.86884,8.44118 -18.94833,-0.64164 -10.56431,8.19396 -10.90033,15.59836 -21.21381,19.55298 0.9126,-7.09218 -22.37063,-10.90803 -25.54443,-3.46471 -6.38963,2.57308 1.32915,-9.32097 -7.90455,-6.05233 -10.40062,-3.02386 -4.34704,17.93464 -25.55362,9.36597 -11.8077,-0.37983 -5.2687,16.71929 -13.06117,23.88224 -2.0761,7.53231 -11.08359,-2.62404 -14.72934,-2.06009 0.84794,11.92658 3.40768,7.88228 0.71924,15.9966 -1.60415,10.16538 -3.75129,15.25548 7.43178,17.37239 3.62121,-4.90361 -0.18204,-2.829 0.62793,6.21747 6.45765,-1.87978 14.94635,-12.63999 14.07505,-1.58144 4.38202,-6.67329 18.25435,-10.15139 18.07994,-17.33913 7.02184,0.73709 14.90236,8.57944 20.82979,-0.95299 5.95076,-7.0412 14.50445,-10.30685 14.59427,-4.86854 7.23377,6.7565 7.95724,5.38728 15.478,3.66781 -1.93719,-8.71166 17.59935,-0.59858 7.28271,-9.27171 4.09757,-4.10343 15.18748,-6.50139 21.59622,-5.07542 5.66947,8.25419 22.94407,8.93721 25.63186,-1.74704 0.56398,-8.40429 13.68224,-11.27875 18.58724,-5.46823 8.52969,-7.4786 21.98421,3.38849 29.32409,-2.3442 -6.59758,-8.56295 9.32443,-14.15812 12.29788,-7.59298 5.84169,-3.13663 11.27804,-14.42284 17.66836,-6.34283 7.34987,-2.39523 16.32468,-5.72557 22.54222,-8.22182 4.66667,7.69315 16.74733,-0.2211 11.51054,-9.53228 -2.83483,-6.65069 9.30974,3.27444 6.00348,-5.16367 -3.76088,-9.07689 -9.04264,-21.69181 -15.51378,-21.2748 -8.8124,-2.20185 -14.03766,3.74492 -14.40344,12.16045 -0.11143,-6.14114 -10.52227,-0.15499 -15.9832,2.07193 l -2.99388,0.71227 -3.57688,-2.52294"
       inkscape:connector-curvature="0" /><path
       id="path1307"
       style="fill:#ffffff;fill-opacity:1;fill-rule:evenodd;stroke:#000000;stroke-width:0.60142648px;stroke-linecap:butt;stroke-linejoin:miter;stroke-opacity:1"
       d="m 370.52395,221.8307 c -7.45124,-2.6426 -14.35623,-3.01411 -20.94463,-2.60667 -4.52499,-3.82249 -9.89492,-2.56891 -13.81555,-1.31521 -0.65796,-7.35972 -9.61402,6.56907 -14.39462,6.62925 -3.39454,1.94834 -1.05481,-5.80052 -7.13355,-2.85309 -7.55754,0.71399 -16.31902,-3.97224 -21.92537,-1.54499 -1.34666,8.01279 -13.44905,12.52661 -15.26045,3.7443 -6.59857,2.87142 -14.78225,13.64667 -14.86172,4.56385 -12.38454,-0.5429 -17.69005,11.63327 -28.00354,15.58789 0.91261,-7.09217 -15.5809,-6.94295 -18.75471,0.50038 -6.38962,2.57308 -1.69916,-13.4386 -10.93286,-10.16996 -10.40061,-3.02386 -10.11666,17.69747 -22.52531,13.48359 -11.80769,-0.37983 -10.15859,11.35793 -17.95107,18.52087 -2.07609,7.53232 -6.19368,2.73734 -9.83944,3.30129 5.99914,8.51379 -18.39263,6.74041 -11.15151,19.87036 -1.60415,10.16538 0.84851,17.47186 12.03157,19.58876 3.62121,-4.9036 7.08893,-8.91913 7.8989,0.12733 6.45764,-1.87977 14.94635,-12.63998 14.07504,-1.58143 4.38203,-6.67329 18.25435,-10.15139 18.07994,-17.33913 7.02184,0.73709 14.90236,8.57943 20.82979,-0.953 5.95076,-7.04119 6.93352,-1.29602 7.02333,4.14228 7.23377,6.75651 15.52819,-3.62354 23.04894,-5.343 -1.93719,-8.71165 17.59935,-0.59858 7.28272,-9.27172 4.09756,-4.10342 15.18748,-6.50139 21.59622,-5.07542 5.62317,5.3341 22.94406,8.93722 25.63186,-1.74704 0.56398,-8.40429 13.68223,-11.27874 18.58724,-5.46823 8.52968,-7.47859 21.9842,3.3885 29.32408,-2.34419 -6.59758,-8.56296 9.32444,-14.15812 12.29788,-7.59298 5.84169,-3.13663 11.27804,-14.42284 17.66837,-6.34283 7.34985,-2.39523 16.32467,-5.72558 22.54222,-8.22183 4.66666,7.69315 16.74733,-0.2211 11.51053,-9.53227 -2.83483,-6.65069 9.30974,3.27444 6.00349,-5.16367 0.0738,-9.65646 -3.56311,-24.59965 -15.51378,-21.2748 -8.81241,-2.20185 -14.03766,3.74491 -14.40345,12.16044 -0.11143,-6.14113 -14.02552,-3.92353 -19.48644,-1.69661 l -1.78895,0.9461 -1.27857,1.01177"
       inkscape:connector-curvature="0" /><path
       id="path3126"
       style="fill:none;stroke:#000000;stroke-width:0.83349466px;stroke-linecap:butt;stroke-linejoin:miter;stroke-opacity:1"
       d="m 155.67981,210.88831 c 3.14012,-40.84748 23.78547,-59.45023 20.15126,-92.12062 -2.14808,-19.310467 -19.537,-4.67273 -13.86936,13.44173"
       inkscape:connector-curvature="0" /><path
       id="path3249"
       style="opacity:0.11235956;fill:#000000;fill-opacity:1;fill-rule:evenodd;stroke:none"
       d="m 163.97802,266.61875 c -2.07609,7.53231 -6.19368,2.73733 -9.83944,3.30128 5.99914,8.51379 -18.39263,6.74042 -11.15152,19.87037 -1.60414,10.16538 0.84852,17.47185 12.03159,19.58875 3.6212,-4.9036 7.08892,-8.91913 7.89889,0.12734 6.45764,-1.87978 14.94635,-12.63999 14.07505,-1.58144 4.38202,-6.67328 18.25434,-10.15139 18.07993,-17.33912 7.02184,0.73708 14.56587,7.34967 20.4933,-2.18275 5.95076,-7.0412 7.27,-0.0663 7.35982,5.37202 7.23377,6.75652 15.52819,-3.62353 23.04895,-5.34299 -1.9372,-8.71166 8.86645,-1.54524 7.2827,-9.27172 -1.03721,-5.06015 33.64493,-3.56205 28.65668,-8.51045 -14.90587,-14.78677 -38.19112,7.49212 -41.55999,6.0701 -3.36887,-1.42201 -7.09125,-0.55957 -2.38487,-2.71925 4.70639,-2.15967 -6.74248,1.39249 -16.27743,-1.99436 -9.53496,-3.38685 -16.51439,0.89493 -17.1513,9.34281 -7.18176,-4.46668 -7.69633,0.60685 -18.88509,3.71804 7.12945,-10.42281 -12.5996,-2.76884 -12.5996,-2.76884 0,0 3.43729,-11.42797 -2.73938,-9.91964 3.32068,-5.96418 -0.36489,-7.80159 -0.36489,-7.80159 0,0 1.81907,-5.12151 -5.9734,2.04144 z"
       inkscape:connector-curvature="0" /><path
       id="path2251"
       style="fill:#ffffff;fill-opacity:1;fill-rule:evenodd;stroke:#000000;stroke-width:0.81360233;stroke-linecap:butt;stroke-linejoin:miter;stroke-miterlimit:4;stroke-opacity:1;stroke-dasharray:none"
       d="m 46.944746,146.2449 c -1.301678,-2.31828 -5.35751,-2.9566 -5.879409,-4.92258 0.90649,-2.28341 -2.659108,-0.62717 -3.361697,-1.88241 -4.194454,3.43361 -9.9845,4.91989 -13.092707,9.64254 1.652786,-0.36247 1.648832,-2.77858 -0.157056,-0.99615 -3.401098,1.68966 -6.688157,4.65771 -5.409253,8.89282 0.309772,2.17325 -2.425553,4.04333 0.913564,4.55805 -0.435409,3.47934 -5.654943,3.33284 -5.658053,6.4037 1.15534,3.3495 0.647111,6.84015 -2.100735,9.18954 -2.7180283,2.54178 -1.598648,6.28312 -1.499585,9.37085 -1.3669853,2.06531 -2.1364273,3.98573 -0.334716,5.95301 0.381454,3.5482 3.326995,5.89755 3.348942,9.5893 1.240053,1.93493 3.726708,1.8152 4.99685,4.00177 3.710475,0.3154 3.982719,5.49648 7.517208,6.2151 3.036183,0.99028 6.628635,0.30362 9.364415,1.02979 2.243733,1.81902 4.819206,3.08691 7.64389,3.59772 3.550896,2.25998 4.757769,-3.36478 6.906731,-5.17595 0.111428,-2.83195 2.146008,-3.05232 3.508535,-0.6677 3.101,2.10235 6.314017,-1.51811 8.537176,-3.43384 2.173489,-2.36905 4.611889,-4.42 7.032089,-6.49716 3.435924,-3.87856 4.655818,-9.42971 4.463567,-14.53502 0.340584,-3.19933 -2.634125,-3.37634 -4.590549,-3.74166 0.884588,-2.68233 3.113445,-6.54159 -1.432528,-6.82885 -2.606958,-0.6809 -8.517294,-3.59356 -5.132485,-6.66202 2.497843,-2.91871 -0.939756,-6.84771 -2.473531,-9.48419 -2.656218,-2.11406 -4.199508,-5.05895 -5.85115,-7.63014 -3.197679,-0.50952 -6.194337,-2.45275 -7.009506,-5.8451 -0.853644,-2.69404 -0.236398,-0.69903 0.03297,0.61246"
       inkscape:connector-curvature="0" /><path
       id="path4128"
       style="opacity:0.0955056;fill:#000000;fill-opacity:1;fill-rule:evenodd;stroke:none"
       d="m 20.404837,181.84614 c -1.601293,-1.9684 4.721412,-1.04116 4.199512,-3.00714 0.90649,-2.28339 -0.178267,-2.37846 -0.880857,-3.63371 -4.194453,3.43361 -3.206637,-4.70088 -6.314844,0.0218 1.652786,-0.36246 1.381011,-6.33357 -0.424877,-4.55114 -3.401098,1.68965 -2.680526,-5.80591 -2.683636,-2.73505 1.15534,3.3495 0.647111,6.84015 -2.100735,9.18954 -2.7180283,2.54178 -1.598648,6.28312 -1.499585,9.37085 -1.3669853,2.06531 -2.1364273,3.98573 -0.334716,5.95301 0.381454,3.5482 3.326995,5.89755 3.348942,9.5893 1.240053,1.93493 3.726708,1.8152 4.99685,4.00177 3.710475,0.3154 3.982719,5.49648 7.517208,6.2151 3.036183,0.99028 6.628635,0.30362 9.364415,1.02979 2.243733,1.81902 4.819206,3.08691 7.64389,3.59772 3.550896,2.25998 4.757769,-3.36478 6.906731,-5.17595 0.111428,-2.83195 2.146008,-3.05232 3.508535,-0.6677 3.101,2.10235 6.314017,-1.51811 8.537176,-3.43384 2.173489,-2.36905 -8.345955,0.35931 -5.925755,-1.71784 3.43592,-3.87857 -7.75248,5.41378 -7.944735,0.30847 0.340581,-3.19932 -12.370379,4.07056 -9.678506,-1.55391 0.884591,-2.68233 1.535909,-0.7479 -3.010064,-1.03517 -2.606958,-0.6809 -9.803527,-5.4936 -6.418718,-8.56206 2.497844,-2.91871 -1.342064,0.45638 -2.875839,-2.18009 -2.656219,-2.11406 -0.95965,-0.95001 -2.611292,-3.52118 -3.197679,-0.50952 -1.791784,-1.81661 -2.606953,-5.20895 -1.383361,3.98006 -0.981514,-3.60508 -0.712147,-2.29359 z"
       inkscape:connector-curvature="0" /><path
       id="path5880"
       style="fill:#000000;fill-opacity:0.22346371;fill-rule:evenodd;stroke:none"
       d="m 157.67035,192.3615 c 0,0 13.14456,-33.51164 16.30292,-46.8815 2.955,-12.50888 2.57264,-31.60315 -1.8531,-35.13721 -4.42575,-3.53406 -10.24707,2.57829 -10.86062,9.81603 -0.61354,7.23773 -1.12742,9.06164 1.8435,22.86746 1.34679,6.25851 0.67415,21.09312 -1.15695,28.09458 -1.8311,7.00146 -5.82667,22.94607 -4.27575,21.24064 z"
       inkscape:connector-curvature="0" /></g></pattern><pattern
   patternUnits="userSpaceOnUse"
   width="64.237701"
   height="44.645954"
   patternTransform="translate(-496.177,188.20378)"
   id="pattern5246"><rect
     id="rect5236"
     y="0"
     x="0"
     height="44.645954"
     width="64.237701"
     style="fill:url(#pattern5249);stroke:none" /></pattern><pattern
   patternUnits="userSpaceOnUse"
   width="120.71075"
   height="83.895386"
   patternTransform="translate(-496.177,188.20378)"
   id="pattern5255"><rect
     id="rect5251"
     y="0"
     x="0"
     height="83.895386"
     width="120.71075"
     style="fill:url(#pattern5258);stroke:none" /></pattern><linearGradient
   gradientTransform="scale(1.136498,0.879896)"
   gradientUnits="userSpaceOnUse"
   id="linearGradient2162"
   spreadMethod="reflect"
   x1="340.0267"
   x2="261.70718"
   xlink:href="#linearGradient2163"
   y1="643.62378"
   y2="643.62378" /><linearGradient
   id="linearGradient2163"><stop
     id="stop2164"
     offset="0.0000000"
     style="stop-color:#806514;stop-opacity:1.0000000;" /><stop
     id="stop2166"
     offset="0.50000000"
     style="stop-color:#c29a58;stop-opacity:1.0000000;" /><stop
     id="stop2165"
     offset="1.0000000"
     style="stop-color:#806514;stop-opacity:1.0000000;" /></linearGradient><linearGradient
   gradientTransform="scale(1.434893,0.696916)"
   gradientUnits="userSpaceOnUse"
   id="linearGradient10"
   x1="235.35643"
   x2="235.35643"
   xlink:href="#linearGradient1530"
   y1="718.3501"
   y2="424.73553" /><linearGradient
   id="linearGradient1530"><stop
     id="stop1531"
     offset="0.0000000"
     style="stop-color:#285925;stop-opacity:1.0000000;" /><stop
     id="stop1532"
     offset="1.0000000"
     style="stop-color:#5ce451;stop-opacity:1.0000000;" /></linearGradient><linearGradient
   gradientTransform="scale(1.434893,0.696916)"
   gradientUnits="userSpaceOnUse"
   id="linearGradient11"
   x1="235.49731"
   x2="235.49731"
   xlink:href="#linearGradient1530"
   y1="532.65594"
   y2="299.71429" /><linearGradient
   id="linearGradient3053"><stop
     id="stop3055"
     offset="0.0000000"
     style="stop-color:#285925;stop-opacity:1.0000000;" /><stop
     id="stop3057"
     offset="1.0000000"
     style="stop-color:#5ce451;stop-opacity:1.0000000;" /></linearGradient><linearGradient
   gradientTransform="scale(1.434893,0.696916)"
   gradientUnits="userSpaceOnUse"
   id="linearGradient1533"
   x1="235.62045"
   x2="235.62045"
   xlink:href="#linearGradient1530"
   y1="372.63223"
   y2="192.71719" /><linearGradient
   id="linearGradient3060"><stop
     id="stop3062"
     offset="0.0000000"
     style="stop-color:#285925;stop-opacity:1.0000000;" /><stop
     id="stop3064"
     offset="1.0000000"
     style="stop-color:#5ce451;stop-opacity:1.0000000;" /></linearGradient><radialGradient
   cx="316.33749"
   cy="92.979301"
   fx="316.33749"
   fy="92.979301"
   gradientTransform="scale(0.934502,1.070088)"
   gradientUnits="userSpaceOnUse"
   id="radialGradient3428"
   r="50.264717"
   xlink:href="#linearGradient3429" /><linearGradient
   id="linearGradient3429"><stop
     id="stop3430"
     offset="0.0000000"
     style="stop-color:#ffa900;stop-opacity:1.0000000;" /><stop
     id="stop3431"
     offset="1.0000000"
     style="stop-color:#ffff00;stop-opacity:1.0000000;" /></linearGradient><radialGradient
   cx="91.890312"
   cy="364.99167"
   fx="92.031456"
   fy="364.99167"
   gradientTransform="scale(0.972826,1.027933)"
   gradientUnits="userSpaceOnUse"
   id="radialGradient12"
   r="17.360537"
   xlink:href="#linearGradient2790" /><linearGradient
   id="linearGradient2790"><stop
     id="stop2791"
     offset="0.0000000"
     style="stop-color:#f2867d;stop-opacity:1.0000000;" /><stop
     id="stop2793"
     offset="1.0000000"
     style="stop-color:#ff000a;stop-opacity:1.0000000;" /></linearGradient><radialGradient
   cx="91.890312"
   cy="364.99167"
   fx="92.031456"
   fy="364.99167"
   gradientTransform="scale(0.972826,1.027933)"
   gradientUnits="userSpaceOnUse"
   id="radialGradient13"
   r="17.360537"
   xlink:href="#linearGradient2790" /><linearGradient
   id="linearGradient3075"><stop
     id="stop3077"
     offset="0.0000000"
     style="stop-color:#f2867d;stop-opacity:1.0000000;" /><stop
     id="stop3079"
     offset="1.0000000"
     style="stop-color:#ff000a;stop-opacity:1.0000000;" /></linearGradient><radialGradient
   cx="91.890312"
   cy="364.99167"
   fx="92.031456"
   fy="364.99167"
   gradientTransform="scale(0.972826,1.027933)"
   gradientUnits="userSpaceOnUse"
   id="radialGradient14"
   r="17.360537"
   xlink:href="#linearGradient2790" /><linearGradient
   id="linearGradient3082"><stop
     id="stop3084"
     offset="0.0000000"
     style="stop-color:#f2867d;stop-opacity:1.0000000;" /><stop
     id="stop3086"
     offset="1.0000000"
     style="stop-color:#ff000a;stop-opacity:1.0000000;" /></linearGradient><radialGradient
   cx="91.890312"
   cy="364.99167"
   fx="92.031456"
   fy="364.99167"
   gradientTransform="scale(0.972826,1.027933)"
   gradientUnits="userSpaceOnUse"
   id="radialGradient15"
   r="17.360537"
   xlink:href="#linearGradient2790" /><linearGradient
   id="linearGradient3089"><stop
     id="stop3091"
     offset="0.0000000"
     style="stop-color:#f2867d;stop-opacity:1.0000000;" /><stop
     id="stop3093"
     offset="1.0000000"
     style="stop-color:#ff000a;stop-opacity:1.0000000;" /></linearGradient><radialGradient
   cx="91.890312"
   cy="364.99167"
   fx="92.031456"
   fy="364.99167"
   gradientTransform="scale(0.972826,1.027933)"
   gradientUnits="userSpaceOnUse"
   id="radialGradient16"
   r="17.360537"
   xlink:href="#linearGradient2790" /><linearGradient
   id="linearGradient3096"><stop
     id="stop3098"
     offset="0.0000000"
     style="stop-color:#f2867d;stop-opacity:1.0000000;" /><stop
     id="stop3100"
     offset="1.0000000"
     style="stop-color:#ff000a;stop-opacity:1.0000000;" /></linearGradient><radialGradient
   cx="91.890312"
   cy="364.99167"
   fx="92.031456"
   fy="364.99167"
   gradientTransform="scale(0.972826,1.027933)"
   gradientUnits="userSpaceOnUse"
   id="radialGradient17"
   r="17.360537"
   xlink:href="#linearGradient2790" /><linearGradient
   id="linearGradient3103"><stop
     id="stop3105"
     offset="0.0000000"
     style="stop-color:#f2867d;stop-opacity:1.0000000;" /><stop
     id="stop3107"
     offset="1.0000000"
     style="stop-color:#ff000a;stop-opacity:1.0000000;" /></linearGradient><radialGradient
   cx="91.890312"
   cy="364.99167"
   fx="92.031456"
   fy="364.99167"
   gradientTransform="scale(0.972826,1.027933)"
   gradientUnits="userSpaceOnUse"
   id="radialGradient18"
   r="17.360537"
   xlink:href="#linearGradient2790" /><linearGradient
   id="linearGradient3110"><stop
     id="stop3112"
     offset="0.0000000"
     style="stop-color:#f2867d;stop-opacity:1.0000000;" /><stop
     id="stop3114"
     offset="1.0000000"
     style="stop-color:#ff000a;stop-opacity:1.0000000;" /></linearGradient><radialGradient
   cx="91.890312"
   cy="364.99167"
   fx="92.031456"
   fy="364.99167"
   gradientTransform="scale(0.972826,1.027933)"
   gradientUnits="userSpaceOnUse"
   id="radialGradient19"
   r="17.360537"
   xlink:href="#linearGradient2790" /><linearGradient
   id="linearGradient3117"><stop
     id="stop3119"
     offset="0.0000000"
     style="stop-color:#f2867d;stop-opacity:1.0000000;" /><stop
     id="stop3121"
     offset="1.0000000"
     style="stop-color:#ff000a;stop-opacity:1.0000000;" /></linearGradient><radialGradient
   cx="91.890312"
   cy="364.99167"
   fx="92.031456"
   fy="364.99167"
   gradientTransform="scale(0.972826,1.027933)"
   gradientUnits="userSpaceOnUse"
   id="radialGradient20"
   r="17.360537"
   xlink:href="#linearGradient2790" /><linearGradient
   id="linearGradient3124"><stop
     id="stop3126"
     offset="0.0000000"
     style="stop-color:#f2867d;stop-opacity:1.0000000;" /><stop
     id="stop3128"
     offset="1.0000000"
     style="stop-color:#ff000a;stop-opacity:1.0000000;" /></linearGradient><radialGradient
   cx="91.890312"
   cy="364.99167"
   fx="92.031456"
   fy="364.99167"
   gradientTransform="scale(0.972826,1.027933)"
   gradientUnits="userSpaceOnUse"
   id="radialGradient21"
   r="17.360537"
   xlink:href="#linearGradient2790" /><linearGradient
   id="linearGradient3131"><stop
     id="stop3133"
     offset="0.0000000"
     style="stop-color:#f2867d;stop-opacity:1.0000000;" /><stop
     id="stop3135"
     offset="1.0000000"
     style="stop-color:#ff000a;stop-opacity:1.0000000;" /></linearGradient><radialGradient
   cx="91.890312"
   cy="364.99167"
   fx="92.031456"
   fy="364.99167"
   gradientTransform="scale(0.972826,1.027933)"
   gradientUnits="userSpaceOnUse"
   id="radialGradient22"
   r="17.360537"
   xlink:href="#linearGradient2790" /><linearGradient
   id="linearGradient3138"><stop
     id="stop3140"
     offset="0.0000000"
     style="stop-color:#f2867d;stop-opacity:1.0000000;" /><stop
     id="stop3142"
     offset="1.0000000"
     style="stop-color:#ff000a;stop-opacity:1.0000000;" /></linearGradient><radialGradient
   cx="91.890312"
   cy="364.99167"
   fx="92.031456"
   fy="364.99167"
   gradientTransform="scale(0.972826,1.027933)"
   gradientUnits="userSpaceOnUse"
   id="radialGradient2789"
   r="17.360537"
   xlink:href="#linearGradient2790" /><linearGradient
   id="linearGradient3145"><stop
     id="stop3147"
     offset="0.0000000"
     style="stop-color:#f2867d;stop-opacity:1.0000000;" /><stop
     id="stop3149"
     offset="1.0000000"
     style="stop-color:#ff000a;stop-opacity:1.0000000;" /></linearGradient><linearGradient
   gradientTransform="matrix(1.1469938,0,0,1.1469938,124.95198,182.25356)"
   gradientUnits="userSpaceOnUse"
   xlink:href="#linearGradient3195"
   id="linearGradient5508"
   y2="-2.219666"
   x2="203.875"
   y1="-20.469666"
   x1="194.75" /><linearGradient
   id="linearGradient3195"><stop
     id="stop3197"
     offset="0"
     style="stop-color:#ffffff;stop-opacity:1" /><stop
     id="stop3199"
     offset="1"
     style="stop-color:#ffffff;stop-opacity:0" /></linearGradient><linearGradient
   gradientTransform="matrix(1.1469938,0,0,1.1469938,124.95198,182.25356)"
   gradientUnits="userSpaceOnUse"
   xlink:href="#linearGradient3195"
   id="linearGradient5510"
   y2="-1.703125"
   x2="198.3125"
   y1="-16.28125"
   x1="186.53125" /><linearGradient
   id="linearGradient3271"><stop
     id="stop3273"
     offset="0"
     style="stop-color:#ffffff;stop-opacity:1" /><stop
     id="stop3275"
     offset="1"
     style="stop-color:#ffffff;stop-opacity:0" /></linearGradient><linearGradient
   inkscape:collect="always"
   xlink:href="#linearGradient3791"
   id="linearGradient3797"
   x1="375.47369"
   y1="205.14513"
   x2="375.47369"
   y2="124.99901"
   gradientUnits="userSpaceOnUse"
   gradientTransform="matrix(1.9186222,0,0,1.8942647,-545.81805,-28.83177)" /><linearGradient
   inkscape:collect="always"
   id="linearGradient3791"><stop
     style="stop-color:#000000;stop-opacity:1;"
     offset="0"
     id="stop3793" /><stop
     style="stop-color:#000000;stop-opacity:0;"
     offset="1"
     id="stop3795" /></linearGradient><linearGradient
   inkscape:collect="always"
   xlink:href="#linearGradient3781"
   id="linearGradient3787"
   x1="375.47369"
   y1="122.45143"
   x2="375.47369"
   y2="76.185806"
   gradientUnits="userSpaceOnUse"
   gradientTransform="matrix(1.9186222,0,0,1.8942647,-545.81805,-28.83177)" /><linearGradient
   inkscape:collect="always"
   id="linearGradient3781"><stop
     style="stop-color:#000000;stop-opacity:1;"
     offset="0"
     id="stop3783" /><stop
     style="stop-color:#000000;stop-opacity:0;"
     offset="1"
     id="stop3785" /></linearGradient><linearGradient
   inkscape:collect="always"
   xlink:href="#linearGradient3865"
   id="linearGradient3881"
   x1="332.01562"
   y1="257.96771"
   x2="374.6456"
   y2="259.93646"
   gradientUnits="userSpaceOnUse"
   gradientTransform="matrix(1.9186222,0,0,1.8942647,-545.81805,-28.83177)" /><linearGradient
   inkscape:collect="always"
   id="linearGradient3865"><stop
     style="stop-color:#000000;stop-opacity:1;"
     offset="0"
     id="stop3867" /><stop
     style="stop-color:#000000;stop-opacity:0;"
     offset="1"
     id="stop3869" /></linearGradient><linearGradient
   inkscape:collect="always"
   xlink:href="#linearGradient3865"
   id="linearGradient5676"
   gradientUnits="userSpaceOnUse"
   gradientTransform="matrix(1.9186222,0,0,1.8942647,-429.26181,19.474217)"
   x1="332.01562"
   y1="257.96771"
   x2="374.6456"
   y2="259.93646" /><linearGradient
   inkscape:collect="always"
   xlink:href="#linearGradient3781"
   id="linearGradient5678"
   gradientUnits="userSpaceOnUse"
   gradientTransform="matrix(1.9186222,0,0,1.8942647,-431.03802,19.474217)"
   x1="375.47369"
   y1="122.45143"
   x2="375.47369"
   y2="76.185806" /><linearGradient
   inkscape:collect="always"
   xlink:href="#linearGradient3791"
   id="linearGradient5680"
   gradientUnits="userSpaceOnUse"
   gradientTransform="matrix(1.9186222,0,0,1.8942647,-432.18271,19.474217)"
   x1="375.47369"
   y1="205.14513"
   x2="375.47369"
   y2="124.99901" /><linearGradient
   inkscape:collect="always"
   xlink:href="#linearGradient3195"
   id="linearGradient5682"
   gradientUnits="userSpaceOnUse"
   gradientTransform="matrix(1.1469938,0,0,1.1469938,124.95198,182.25356)"
   x1="194.75"
   y1="-20.469666"
   x2="203.875"
   y2="-2.219666" /><linearGradient
   inkscape:collect="always"
   xlink:href="#linearGradient3195"
   id="linearGradient5684"
   gradientUnits="userSpaceOnUse"
   gradientTransform="matrix(1.1469938,0,0,1.1469938,124.95198,182.25356)"
   x1="186.53125"
   y1="-16.28125"
   x2="198.3125"
   y2="-1.703125" /><linearGradient
   inkscape:collect="always"
   xlink:href="#linearGradient3865"
   id="linearGradient5700"
   gradientUnits="userSpaceOnUse"
   gradientTransform="matrix(1.9186222,0,0,1.8942647,-429.26181,19.474217)"
   x1="332.01562"
   y1="257.96771"
   x2="374.6456"
   y2="259.93646" /><linearGradient
   inkscape:collect="always"
   xlink:href="#linearGradient3781"
   id="linearGradient5702"
   gradientUnits="userSpaceOnUse"
   gradientTransform="matrix(1.9186222,0,0,1.8942647,-431.03802,19.474217)"
   x1="375.47369"
   y1="122.45143"
   x2="375.47369"
   y2="76.185806" /><linearGradient
   inkscape:collect="always"
   xlink:href="#linearGradient3791"
   id="linearGradient5704"
   gradientUnits="userSpaceOnUse"
   gradientTransform="matrix(1.9186222,0,0,1.8942647,-432.18271,19.474217)"
   x1="375.47369"
   y1="205.14513"
   x2="375.47369"
   y2="124.99901" /><linearGradient
   inkscape:collect="always"
   xlink:href="#linearGradient3195"
   id="linearGradient5706"
   gradientUnits="userSpaceOnUse"
   gradientTransform="matrix(1.1469938,0,0,1.1469938,124.95198,182.25356)"
   x1="194.75"
   y1="-20.469666"
   x2="203.875"
   y2="-2.219666" /><linearGradient
   inkscape:collect="always"
   xlink:href="#linearGradient3195"
   id="linearGradient5708"
   gradientUnits="userSpaceOnUse"
   gradientTransform="matrix(1.1469938,0,0,1.1469938,124.95198,182.25356)"
   x1="186.53125"
   y1="-16.28125"
   x2="198.3125"
   y2="-1.703125" /><radialGradient
   inkscape:collect="always"
   xlink:href="#linearGradient5725"
   id="radialGradient5731"
   cx="289.9265"
   cy="290.43022"
   fx="289.9265"
   fy="290.43022"
   r="289.9265"
   gradientTransform="matrix(1,0,0,1.0017359,0,-0.50415218)"
   gradientUnits="userSpaceOnUse" /><radialGradient
   inkscape:collect="always"
   xlink:href="#linearGradient6560"
   id="radialGradient6632"
   gradientUnits="userSpaceOnUse"
   gradientTransform="matrix(1,0,0,1.990991,0,-183.7246)"
   cx="125.52837"
   cy="185.39479"
   fx="125.52837"
   fy="185.39479"
   r="35.819149" /><linearGradient
   id="linearGradient6560"><stop
     style="stop-color:#f9f7d4;stop-opacity:1;"
     offset="0"
     id="stop6562" /><stop
     style="stop-color:#f8ff00;stop-opacity:0;"
     offset="1"
     id="stop6564" /></linearGradient><radialGradient
   inkscape:collect="always"
   xlink:href="#linearGradient6560"
   id="radialGradient6626"
   gradientUnits="userSpaceOnUse"
   gradientTransform="matrix(1,0,0,1.990991,0,-183.7246)"
   cx="125.52837"
   cy="185.39479"
   fx="125.52837"
   fy="185.39479"
   r="35.819149" /><linearGradient
   id="linearGradient3043"><stop
     style="stop-color:#f9f7d4;stop-opacity:1;"
     offset="0"
     id="stop3045" /><stop
     style="stop-color:#f8ff00;stop-opacity:0;"
     offset="1"
     id="stop3047" /></linearGradient><radialGradient
   inkscape:collect="always"
   xlink:href="#linearGradient6560"
   id="radialGradient6622"
   gradientUnits="userSpaceOnUse"
   gradientTransform="matrix(1,0,0,1.990991,0,-183.7246)"
   cx="125.52837"
   cy="185.39479"
   fx="125.52837"
   fy="185.39479"
   r="35.819149" /><linearGradient
   id="linearGradient3050"><stop
     style="stop-color:#f9f7d4;stop-opacity:1;"
     offset="0"
     id="stop3052" /><stop
     style="stop-color:#f8ff00;stop-opacity:0;"
     offset="1"
     id="stop3054" /></linearGradient><radialGradient
   inkscape:collect="always"
   xlink:href="#linearGradient6560"
   id="radialGradient6618"
   gradientUnits="userSpaceOnUse"
   gradientTransform="matrix(1,0,0,1.990991,0,-183.7246)"
   cx="125.52837"
   cy="185.39479"
   fx="125.52837"
   fy="185.39479"
   r="35.819149" /><linearGradient
   id="linearGradient3057"><stop
     style="stop-color:#f9f7d4;stop-opacity:1;"
     offset="0"
     id="stop3059" /><stop
     style="stop-color:#f8ff00;stop-opacity:0;"
     offset="1"
     id="stop3061" /></linearGradient><radialGradient
   inkscape:collect="always"
   xlink:href="#linearGradient6560"
   id="radialGradient6614"
   gradientUnits="userSpaceOnUse"
   gradientTransform="matrix(1,0,0,1.990991,0,-183.7246)"
   cx="125.52837"
   cy="185.39479"
   fx="125.52837"
   fy="185.39479"
   r="35.819149" /><linearGradient
   id="linearGradient3064"><stop
     style="stop-color:#f9f7d4;stop-opacity:1;"
     offset="0"
     id="stop3066" /><stop
     style="stop-color:#f8ff00;stop-opacity:0;"
     offset="1"
     id="stop3068" /></linearGradient><radialGradient
   inkscape:collect="always"
   xlink:href="#linearGradient6560"
   id="radialGradient6568"
   cx="125.52837"
   cy="185.39479"
   fx="125.52837"
   fy="185.39479"
   r="35.819149"
   gradientTransform="matrix(1,0,0,1.990991,0,-183.7246)"
   gradientUnits="userSpaceOnUse" /><linearGradient
   id="linearGradient3071"><stop
     style="stop-color:#f9f7d4;stop-opacity:1;"
     offset="0"
     id="stop3073" /><stop
     style="stop-color:#f8ff00;stop-opacity:0;"
     offset="1"
     id="stop3075" /></linearGradient><radialGradient
   inkscape:collect="always"
   xlink:href="#linearGradient6560"
   id="radialGradient5866"
   gradientUnits="userSpaceOnUse"
   gradientTransform="matrix(1,0,0,1.990991,0,-183.7246)"
   cx="125.52837"
   cy="185.39479"
   fx="125.52837"
   fy="185.39479"
   r="35.819149" /><radialGradient
   inkscape:collect="always"
   xlink:href="#linearGradient6560"
   id="radialGradient5868"
   gradientUnits="userSpaceOnUse"
   gradientTransform="matrix(1,0,0,1.990991,0,-183.7246)"
   cx="125.52837"
   cy="185.39479"
   fx="125.52837"
   fy="185.39479"
   r="35.819149" /><radialGradient
   inkscape:collect="always"
   xlink:href="#linearGradient6560"
   id="radialGradient5870"
   gradientUnits="userSpaceOnUse"
   gradientTransform="matrix(1,0,0,1.990991,0,-183.7246)"
   cx="125.52837"
   cy="185.39479"
   fx="125.52837"
   fy="185.39479"
   r="35.819149" /><radialGradient
   inkscape:collect="always"
   xlink:href="#linearGradient6560"
   id="radialGradient5872"
   gradientUnits="userSpaceOnUse"
   gradientTransform="matrix(1,0,0,1.990991,0,-183.7246)"
   cx="125.52837"
   cy="185.39479"
   fx="125.52837"
   fy="185.39479"
   r="35.819149" /><radialGradient
   inkscape:collect="always"
   xlink:href="#linearGradient6560"
   id="radialGradient5874"
   gradientUnits="userSpaceOnUse"
   gradientTransform="matrix(1,0,0,1.990991,0,-183.7246)"
   cx="125.52837"
   cy="185.39479"
   fx="125.52837"
   fy="185.39479"
   r="35.819149" /><radialGradient
   inkscape:collect="always"
   xlink:href="#linearGradient6560"
   id="radialGradient5876"
   gradientUnits="userSpaceOnUse"
   gradientTransform="matrix(1,0,0,1.990991,0,-183.7246)"
   cx="125.52837"
   cy="185.39479"
   fx="125.52837"
   fy="185.39479"
   r="35.819149" /></defs><sodipodi:namedview
   pagecolor="#ffffff"
   bordercolor="#666666"
   borderopacity="1"
   objecttolerance="10"
   gridtolerance="10"
   guidetolerance="10"
   inkscape:pageopacity="0"
   inkscape:pageshadow="2"
   inkscape:window-width="1450"
   inkscape:window-height="879"
   id="namedview19"
   showgrid="false"
   inkscape:zoom="1.161167"
   inkscape:cx="327.14418"
   inkscape:cy="328.11005"
   inkscape:window-x="316"
   inkscape:window-y="100"
   inkscape:window-maximized="0"
   inkscape:current-layer="svg2" />
<g
   id="Layer_2"
   style="fill:#f0f0ec;fill-opacity:1"
   inkscape:export-filename="C:\Users\simon\git\xmas-preset\icons\png\Layer_2.png"
   inkscape:export-xdpi="7.4369802"
   inkscape:export-ydpi="7.4369802">
	<g
   id="g1327"
   style="fill:#f0f0ec;fill-opacity:1">
		<path
   id="path1329"
   d="M66.275,1.768    c-41.335,0-64.571,21.371-64.571,65.036v450.123c0,40.844,20.895,62.229,62.192,62.229H515.92    c41.307,0,62.229-20.315,62.229-62.229V66.804c0-42.601-20.923-65.036-63.521-65.036C514.624,1.768,66.133,1.625,66.275,1.768z"
   style="fill:#f0f0ec;fill-opacity:1"
   stroke-width="3.408"
   stroke="#EEEEEE"
   fill="#111111" />
	</g>
</g>
<g
   id="Layer_3"
   inkscape:export-filename="C:\Users\simon\git\xmas-preset\icons\png\Layer_2.png"
   inkscape:export-xdpi="7.4369802"
   inkscape:export-ydpi="7.4369802">
</g>

<path
   style="fill:#977700;stroke:#977700;stroke-width:3.91247320000000000;stroke-miterlimit:4;stroke-opacity:1;stroke-dasharray:none;fill-opacity:1"
   d="m 170.80847,523.6774 c -4.11853,-12.73874 9.52113,-5.83536 15.58992,-10.39277 -13.7902,-7.44333 -22.70765,-22.04871 -14.45195,-34.31216 1.05144,-12.9559 -2.74571,-39.39579 7.91222,-42.75254 9.25996,15.51151 0.91597,36.72145 8.21137,51.37159 0.56248,8.94778 -12.51405,21.81005 4.12578,16.01691 6.95793,-0.90826 18.95615,3.51167 15.36618,-7.8118 0,-29.43594 0,-58.87189 0,-88.30783 -7.9658,1.72456 -11.35983,-1.12266 -9.48478,-9.23896 0.82413,-5.81232 12.18023,-1.09268 17.29234,-2.61702 8.00607,1.13831 2.36484,-11.37069 4.04842,-16.55487 0,-18.98407 0,-37.96813 0,-56.9522 -11.99294,-0.48435 -26.94841,-11.7448 -27.77297,-24.37296 10.00554,-10.43074 -1.0271,-35.12016 9.96642,-46.76292 12.95543,12.25527 1.9145,35.53996 10.5521,48.67304 -9.45982,12.91843 -1.88784,14.86297 10.05457,11.79246 9.89742,3.25456 6.01883,-7.26689 6.68467,-13.2439 0,-16.13573 0,-32.27147 0,-48.4072 -9.84958,1.43589 -7.38637,-14.62482 2.37119,-9.48478 9.87641,3.06326 8.73842,-4.88788 8.29919,-12.14024 0,-12.86114 0,-25.72227 0,-38.58341 -10.68503,-1.92823 -5.93036,-14.00564 3.69215,-9.74185 6.59579,-0.43161 6.09294,-11.43632 9.68348,-16.34413 11.35106,-29.13475 25.1292,-57.48111 33.90588,-87.493032 -0.0321,-19.462159 -30.4307,-5.93311 -43.57779,-8.09118 -28.54456,1.76827 -57.03067,5.61652 -85.61775,6.00861 -1.06648,-15.832211 12.92775,-30.236363 30.10682,-22.955415 53.60143,4.028469 107.46523,9.037346 161.15116,3.206338 24.42767,-1.786758 48.82106,-4.452715 73.30033,-5.301324 0.86048,17.536081 -14.91089,30.031771 -32.30175,23.028701 -29.89199,-1.85806 -59.73123,-5.59877 -89.67942,-5.85704 -19.57024,3.00188 2.07576,28.61944 3.73754,40.687882 9.81927,24.41097 19.83829,48.74101 29.75968,73.11059 6.29341,0.5699 18.03777,-3.16937 13.1664,7.61176 -8.87512,1.12754 -4.25171,11.09722 -5.3653,17.5813 0,11.75748 0,23.51496 0,35.27244 5.22643,1.49196 17.33783,-3.90104 15.41278,4.74239 -3.51168,5.59221 -10.15378,6.09696 -7.11359,16.88263 0,16.44555 0,32.89109 0,49.33663 9.23684,-0.37946 32.39182,5.01661 17.34743,-9.26394 4.94774,-13.45015 0.33268,-32.7194 6.81986,-47.76008 13.01065,-5.25047 7.36171,29.73217 9.3696,40.66661 11.31894,9.34122 -10.34937,24.71383 -19.82058,27.20202 -6.49166,0.40982 -1.45821,12.34475 -3.04593,17.65853 0,18.61618 0,37.23237 0,55.84854 7.50878,0 15.01758,0 22.52636,0 0.12532,6.59148 1.94811,14.88043 -7.5425,11.85598 -6.61513,0.31369 -1.53272,12.32489 -3.12788,17.65853 0,26.12496 0,52.24994 0,78.37491 7.60318,-2.30495 22.55005,5.09167 23.30218,-1.63809 -9.06202,-15.38874 1.15731,-34.01883 -0.9908,-52.61929 0.47814,-8.01929 10.26806,-22.50613 8.87602,-5.56581 6.53334,15.5955 -0.052,36.46968 7.20856,49.06066 -2.33893,12.39571 -31.25204,24.89489 -5.01611,22.61851 4.02834,1.03705 2.44385,13.8462 1.08443,16.59837 -78.67198,0 -157.34397,0 -236.01593,0 0,-2.76639 0,-5.5328 0,-8.29919 z m 232.3772,0 c 0.71557,-7.41946 -11.58555,-1.82223 -16.55487,-3.55679 -70.35998,0 -140.71997,0 -211.07995,0 -2.94261,9.36055 5.76219,7.07368 12.14024,7.11359 71.83152,0 143.66305,0 215.49458,0 0,-1.1856 0,-2.3712 0,-3.5568 z m -15.41278,-11.85598 c 0.71557,-7.41946 -11.58554,-1.82223 -16.55487,-3.55679 -60.0848,0 -120.1696,0 -180.2544,0 -2.94261,9.36055 5.7622,7.07368 12.14024,7.11359 61.55634,0 123.11269,0 184.66903,0 0,-1.1856 0,-2.3712 0,-3.5568 z m 10.67039,-5.33519 c 3.61596,-6.47291 -6.3913,6.57008 0,0 z M 209.63513,430.82496 c -0.37325,-12.27614 -0.33958,16.68229 -0.34569,22.22018 0.0609,9.11646 -0.1444,27.37137 0.27671,30.35502 0.28669,-17.52288 0.26975,-35.05144 0.069,-52.5752 z m 5.04045,24.68056 c -1.41974,-13.26806 2.77432,-39.85215 -2.71082,-46.40504 -1.33235,30.87624 -1.33235,61.93383 0,92.81008 5.25179,-5.55645 1.43749,-34.25098 2.71082,-46.40504 z m 2.07314,-24.68056 c -0.37325,-12.27614 -0.33958,16.68229 -0.34569,22.22018 0.0609,9.11646 -0.1444,27.37137 0.27671,30.35502 0.28669,-17.52288 0.26975,-35.05144 0.069,-52.5752 z m 10.96844,69.73328 c 4.02924,-6.13256 19.03596,1.63616 14.22717,-11.79326 0,-27.09206 0,-54.18412 0,-81.27618 -7.90398,0 -15.80797,0 -23.71196,0 0,32.01115 0,64.02229 0,96.03344 2.84826,-0.65637 10.06904,1.97059 9.48479,-2.964 z m 21.34076,-45.05272 c -1.41974,-13.26806 2.77432,-39.85215 -2.71082,-46.40504 -1.33235,30.87624 -1.33235,61.93383 0,92.81008 5.25179,-5.55645 1.43749,-34.25098 2.71082,-46.40504 z m 36.97585,47.20682 c -7.29043,-1.18929 2.20254,2.29339 0,0 z m 9.55888,0.0247 c -7.37772,-1.17611 -0.092,2.05136 0,0 z m 38.82834,-47.23148 c -1.41976,-13.26806 2.77431,-39.85215 -2.71083,-46.40504 -1.33235,30.87624 -1.33235,61.93383 0,92.81008 5.2518,-5.55646 1.43749,-34.25098 2.71083,-46.40504 z m 27.26875,0 c 0,-16.00557 0,-32.01115 0,-48.01672 -7.90399,0 -15.80797,0 -23.71196,0 0,30.03515 0,60.0703 0,90.10545 11.40062,-3.08244 13.84915,6.69625 23.71196,5.92799 0,-16.00558 0,-32.01115 0,-48.01672 z m 2.07312,-24.68056 c -0.37323,-12.27614 -0.33958,16.68229 -0.34567,22.22018 0.0609,9.11646 -0.1444,27.37137 0.2767,30.35502 0.28669,-17.52303 0.26977,-35.05128 0.069,-52.5752 z m 5.04047,24.68056 c -1.41976,-13.26806 2.77431,-39.85215 -2.71083,-46.40504 -1.33235,30.87624 -1.33235,61.93383 0,92.81008 5.2518,-5.55646 1.43749,-34.25098 2.71083,-46.40504 z m 2.07312,-24.68056 c -0.37324,-12.27614 -0.33958,16.68229 -0.34567,22.22018 0.0609,9.11646 -0.14441,27.37137 0.27669,30.35502 0.28669,-17.52303 0.26977,-35.05128 0.069,-52.5752 z m -131.59971,69.4769 c -14.30772,-0.59461 -2.93729,1.42833 0,0 z m 69.28283,-0.0383 c -12.30264,-0.16805 -34.85958,-0.34129 -39.92973,0.25379 13.35828,0.0715 34.53365,0.34323 43.04052,-0.18193 l -3.11079,-0.0719 z m 38.60659,0.0383 c -14.30771,-0.59461 -2.93728,1.42833 0,0 z m -165.55818,-5.96805 c -6.83928,-12.52573 -12.65021,9.95617 0,0 z m 62.4096,-64.61509 c -0.39838,-11.84544 -0.34057,17.68047 -0.34916,22.82276 -0.0902,7.42658 0.12898,40.78708 0.41217,17.77234 0.11862,-13.53126 0.1203,-27.06441 -0.0631,-40.5951 z m 7.11358,0 c -0.39837,-11.84544 -0.34056,17.68047 -0.34915,22.82276 -0.0902,7.42658 0.12898,40.78708 0.41217,17.77234 0.11862,-13.53126 0.1203,-27.06441 -0.0631,-40.5951 z m 35.86591,22.82276 c 0,-15.01757 0,-30.03514 0,-45.05272 -11.46079,0 -22.92157,0 -34.38235,0 0,30.03515 0,60.0703 0,90.10545 11.46078,0 22.92156,0 34.38235,0 0,-15.01758 0,-30.03515 0,-45.05273 z m 40.31033,0 c 0,-15.01757 0,-30.03514 0,-45.05272 -11.85598,0 -23.71196,0 -35.56794,0 0,30.03515 0,60.0703 0,90.10545 11.85598,0 23.71196,0 35.56794,0 0,-15.01758 0,-30.03515 0,-45.05273 z m 2.07324,-22.82276 c -0.39837,-11.84544 -0.34057,17.68047 -0.34916,22.82276 -0.0902,7.42658 0.12898,40.78708 0.41218,17.77234 0.1186,-13.53126 0.1203,-27.06441 -0.063,-40.5951 z m 7.11359,0 c -0.39837,-11.84544 -0.34058,17.68047 -0.34916,22.82276 -0.0902,7.42658 0.12898,40.78708 0.41217,17.77234 0.11861,-13.53126 0.12031,-27.06441 -0.063,-40.5951 z m 68.00618,64.61509 c -6.83927,-12.52572 -12.65023,9.95617 0,0 z M 180.29324,469.20987 c 1.53019,-8.80722 -3.12969,-28.25088 -3.43391,-8.31717 -1.38557,6.51696 0.82251,38.40793 3.36718,17.39427 0.0596,-3.02535 0.0656,-6.0513 0.0667,-9.0771 z m 221.70683,0 c 1.53019,-8.80722 -3.12971,-28.25088 -3.43391,-8.31717 -1.38557,6.51696 0.8225,38.40793 3.36717,17.39427 0.0596,-3.02535 0.0656,-6.0513 0.0667,-9.0771 z M 206.05743,405.4816 c -9.49025,-0.93505 0.7333,1.91036 0,6e-5 l 0,-6e-5 z m 7.65485,0.0118 c -7.29048,-1.1893 2.20257,2.29338 0,0 z m 20.82207,-0.0615 c -22.06922,-0.42063 -6.87003,1.20247 0,0 z m 13.56027,0.0615 c -7.29048,-1.1893 2.20257,2.29338 0,0 z m 30.95386,-0.0694 c -8.37666,-0.64223 -30.21112,0.47552 -9.24259,0.40452 0.69949,0.0673 17.37115,-0.12158 9.24259,-0.40452 z m 39.66333,-0.002 c -8.91797,-0.64068 -30.94316,0.48532 -9.18838,0.40408 1.40908,-0.034 15.10366,0.0859 9.18838,-0.40408 z m 14.74588,0.0714 c -7.29051,-1.18931 2.20258,2.29337 0,0 z m 23.19326,-0.0615 c -22.06922,-0.42062 -6.87003,1.20247 0,0 z m 11.18908,0.0615 c -7.2905,-1.18931 2.20258,2.29337 0,0 z m 10.15168,-0.007 c -10.42707,-0.73436 0.3995,1.8177 0,0 z M 200.048,400.07923 c -2.0567,-0.38334 1.24473,7.92203 0,0 z m 39.52514,1.482 c -9.29771,-3.14474 -31.27733,-5.4747 -37.53159,1.32918 11.66333,0.88103 27.57642,3.31943 37.53159,-1.32918 z m 1.97079,-1.482 c -2.0567,-0.38334 1.24473,7.92203 0,0 z m 95.24825,1.482 c -16.38079,-5.10619 -37.05475,-0.93796 -54.94433,-2.37017 -10.67306,2.20875 -33.18268,-4.28088 -37.87503,3.72414 29.91794,1.90103 60.14214,1.15901 90.14135,0.42072 0.81056,-0.056 2.95645,-0.36869 2.67801,-1.77469 z m 1.9708,-1.482 c -2.05672,-0.38334 1.24472,7.92203 0,0 z m 40.71073,1.482 c -9.69219,-3.1348 -32.0858,-5.4975 -38.70793,1.33043 12.0695,0.87529 28.33711,3.32666 38.70793,-1.33043 z m 1.97079,-1.482 c -2.05671,-0.38334 1.24473,7.92203 0,0 z m -165.84837,-2.93659 c -16.84072,-0.70745 -9.84855,1.30816 0,0 z m 21.91851,0.0273 c -16.92396,-0.3645 -0.75755,1.32105 0,0 z m 9.46848,0.0494 c -7.37772,-1.17612 -0.092,2.05135 0,0 z m 33.19676,-0.0926 c -7.85561,-0.7004 -24.67753,0.52737 -7.41,0.42094 1.14315,-0.0351 12.18288,0.0887 7.41,-0.42094 z m 33.74023,-0.002 c -8.50484,-0.69628 -25.34762,0.53735 -7.36068,0.41944 1.39142,0.0737 14.84677,-0.16138 7.36068,-0.41944 z m 21.36751,0.0587 c -9.49025,-0.93505 0.73329,1.91036 0,6e-5 l 0,-6e-5 z m 12.47134,-0.0151 c -11.91485,-0.69073 -2.09661,1.57899 0,0 z m 26.64019,-0.0362 c -10.49431,-0.78903 -15.62684,0.97234 -1.3071,0.41495 -0.60181,0.52633 5.45032,-0.53895 1.3071,-0.41495 z M 221.49052,340.20612 c -0.48561,-8.48801 -0.31614,17.16652 -0.357,22.38067 -0.11548,8.47809 0.25879,28.80319 0.44721,8.58551 0.0912,-10.32178 0.0877,-20.64532 -0.0902,-30.96618 z m 3.85544,18.67317 c -0.48388,-9.364 0.90583,-33.06873 -1.69353,-34.3453 -0.76038,23.65846 -1.55949,47.53028 0.50793,71.09883 1.73292,-12.10898 0.86636,-24.54038 1.1856,-36.75353 z m 2.07255,-18.67317 c -0.48561,-8.48801 -0.31614,17.16652 -0.357,22.38067 -0.11548,8.47809 0.25879,28.80319 0.44721,8.58551 0.0912,-10.32178 0.0877,-20.64532 -0.0902,-30.96618 z m 8.59783,53.05551 c 6.24011,-3.3623 15.58533,-0.5078 11.85598,-12.30413 0,-19.61058 0,-39.22117 0,-58.83175 -5.91621,0.77486 -14.89528,-1.51314 -18.96956,1.10366 0,24.13447 0,48.26894 0,72.40341 2.1679,-0.39596 7.26685,1.26016 7.11358,-2.37119 z m 17.48532,-53.05551 c -0.48561,-8.48801 -0.31614,17.16652 -0.35699,22.38067 -0.11548,8.47809 0.25879,28.80319 0.4472,8.58551 0.0912,-10.32178 0.0877,-20.64532 -0.0902,-30.96618 z m 72.32149,0 c -0.48561,-8.48801 -0.31615,17.16652 -0.35701,22.38067 -0.11548,8.47809 0.25879,28.80319 0.44722,8.58551 0.0912,-10.32178 0.0877,-20.64532 -0.0902,-30.96618 z m 24.01061,18.67317 c 0,-12.25118 0,-24.50237 0,-36.75354 -5.91622,0.77486 -14.8953,-1.51314 -18.96957,1.10366 0,22.55367 0,45.10734 0,67.66102 8.11898,-4.17333 15.33544,9.3611 18.96957,2.53508 0,-11.51542 0,-23.03082 0,-34.54622 z m 5.62934,-18.67317 c -0.48561,-8.48801 -0.31615,17.16652 -0.35701,22.38067 -0.11548,8.47809 0.25879,28.80319 0.44722,8.58551 0.0912,-10.32178 0.0877,-20.64532 -0.0902,-30.96618 z m -108.46367,53.40653 c -16.92396,-0.3645 -0.75755,1.32105 0,0 z m 58.67081,-0.0517 c -10.1344,-0.16016 -30.58287,-0.37045 -34.53982,0.25864 7.60435,0.0371 40.16376,0.40182 34.53982,-0.25864 z m 32.62024,0.0517 c -16.92397,-0.3645 -0.75754,1.32105 0,0 z m -51.29341,-37.10456 c 0,-11.46078 0,-22.92156 0,-34.38234 -9.48479,0 -18.96958,0 -28.45437,0 0,22.92156 0,45.84312 0,68.76468 9.48479,0 18.96958,0 28.45437,0 0,-11.46078 0,-22.92156 0,-34.38234 z m 33.19674,0 c 0,-11.46078 0,-22.92156 0,-34.38234 -9.48478,0 -18.96957,0 -28.45435,0 0,22.92156 0,45.84312 0,68.76468 9.48478,0 18.96957,0 28.45435,0 0,-11.46078 0,-22.92156 0,-34.38234 z m -81.6408,-39.12473 c 21.73565,-3.69088 -43.82533,-2.79062 -14.46513,0.6252 4.81421,-0.3564 9.63565,-0.63248 14.46513,-0.6252 z m 91.12575,-0.8892 c -24.47165,-2.81362 -49.60282,-1.2046 -74.31813,-1.02507 -16.18383,3.2547 18.02027,2.27002 22.67358,2.48476 17.13853,-0.58294 34.77057,1.33764 51.64455,-1.45969 z m 33.95485,0.8892 c -0.35489,-5.50145 -48.37594,-0.99057 -17.93663,0.50688 5.99092,0.38258 11.96071,-0.20694 17.93663,-0.50688 z m -137.42489,-4.42205 c -13.19766,-0.83063 -7.78207,1.3959 1.08171,0.18193 l -1.08171,-0.18201 0,8e-5 z m 17.81041,0.048 c -10.42706,-0.73436 0.3995,1.8177 0,0 z m 9.46222,-0.005 c -9.49025,-0.93505 0.73329,1.91036 0,6e-5 l 0,-6e-5 z m 27.88413,-0.0521 c -16.88755,-0.81357 -14.19628,1.29486 1.43452,0.16908 l -1.43452,-0.16908 z m 28.45435,0 c -16.88754,-0.81357 -14.19627,1.29486 1.43452,0.16908 l -1.43452,-0.16908 z m 18.96957,0.0889 c -7.37773,-1.17611 -0.092,2.05136 0,0 z m 10.07758,-0.0321 c -10.42707,-0.73436 0.3995,1.8177 0,0 z m 22.49992,-0.048 c -13.19765,-0.83063 -7.78209,1.3959 1.0817,0.18193 l -1.0817,-0.18201 0,8e-5 z M 234.53126,264.92065 c -0.58183,-5.38716 -0.31256,20.03833 -0.33924,26.66878 0.33266,24.31368 0.72564,-24.69131 0.33924,-26.66878 z m 2.3712,0 c -0.58183,-5.38716 -0.31256,20.03833 -0.33925,26.66878 0.33267,24.31368 0.72565,-24.69131 0.33925,-26.66878 z m 7.41307,44.16352 c 8.454,-0.99619 11.33765,-4.69875 9.48478,-14.51143 0,-14.92283 0,-29.84564 0,-44.76847 -5.61038,1.36664 -17.90992,-3.95589 -15.41277,5.5183 0,18.71093 0,37.42187 0,56.1328 1.98611,-0.26836 6.05335,1.0096 5.92799,-2.3712 z m 15.11329,-44.16352 c -0.58183,-5.38716 -0.31256,20.03833 -0.33925,26.66878 0.33267,24.31368 0.72565,-24.69131 0.33925,-26.66878 z m 80.92016,15.70917 c 0,-10.27519 0,-20.55036 0,-30.82555 -5.61038,1.36664 -17.90993,-3.95589 -15.41278,5.5183 0,17.13013 0,34.26027 0,51.39041 9.76904,-2.23642 16.8043,11.79506 15.32817,-5.62465 0.10291,-6.81895 0.0772,-13.63901 0.0847,-20.45851 z m -87.45169,28.80142 c -10.44411,-0.5569 -2.20182,1.32421 0,0 z m 50.33486,-0.0474 c -8.58449,-0.529 -44.41678,0.2257 -18.47794,0.36985 2.43982,-0.0318 28.80211,0.13804 18.47794,-0.36985 z m 27.92844,0.0492 c -11.91485,-0.69073 -2.09661,1.57899 0,0 z m -69.36105,-45.69797 c -0.56111,-5.77876 -0.56111,34.82591 0,29.04715 0.21033,-9.68038 0.21032,-19.36678 0,-29.04715 z m 25.19753,14.52357 c 0,-9.48478 0,-18.96956 0,-28.45435 -7.90399,0 -15.80798,0 -23.71197,0 0,18.96957 0,37.93914 0,56.90871 7.90399,0 15.80798,0 23.71197,0 0,-9.48479 0,-18.96957 0,-28.45436 z m 28.45435,0 c 0,-9.48478 0,-18.96956 0,-28.45435 -7.90399,0 -15.80797,0 -23.71196,0 0,18.96957 0,37.93914 0,56.90871 7.90399,0 15.80797,0 23.71196,0 0,-9.48479 0,-18.96957 0,-28.45436 z M 204.90034,303.4526 c -8.64673,-6.56656 -8.60103,6.87597 0,0 z m 175.46851,0 c -8.64675,-6.56656 -8.60103,6.87597 0,0 z M 203.74322,281.51902 c 0.68544,-8.30002 -2.37694,-22.13854 -2.81224,-6.44628 -2.62036,9.45867 2.55384,33.88425 2.89462,11.01879 l -0.0347,-2.159 -0.0477,-2.41351 z m 174.28291,0 c 0.68543,-8.30002 -2.37692,-22.13854 -2.81225,-6.44628 -2.62037,9.45869 2.55384,33.88425 2.89464,11.01879 l -0.0347,-2.159 -0.0477,-2.41351 z M 229.12506,247.80878 c -7.29048,-1.1893 2.20256,2.29337 0,0 z m 19.02243,-0.0493 c -17.52649,-0.87185 -0.92388,1.66949 0,0 z m 33.21799,-0.0148 c -16.88755,-0.81357 -14.19628,1.29486 1.43452,0.16908 l -1.43452,-0.16908 z m 28.45435,0 c -16.88754,-0.81357 -14.19627,1.29486 1.43452,0.16908 l -1.43452,-0.16908 z m 27.24752,0.0148 c -17.52651,-0.87185 -0.92389,1.66949 0,0 z m 15.35991,0.0493 c -7.29051,-1.18931 2.20258,2.29337 0,0 z m -100.99814,-2.74686 c -9.91429,-3.58844 -36.40247,1.11154 -12.44878,1.18559 4.1533,-0.16561 8.46746,0.30992 12.44878,-1.18559 z m 72.32148,0 c -22.76546,-1.83216 -45.99922,-1.83216 -68.76469,0 22.70625,1.83143 46.058,1.83145 68.76469,0 z m 29.63995,0 c -7.33688,-3.18259 -38.1354,0.24865 -15.87126,1.16412 5.27838,-0.15082 10.76544,0.51311 15.87126,-1.16412 z m -117.09904,-3.23044 c -17.52649,-0.87185 -0.92388,1.66949 0,0 z m 14.17431,0.0493 c -7.29048,-1.18929 2.20257,2.29338 0,0 z m 8.37328,0.0247 c -7.37772,-1.17611 -0.092,2.05136 0,0 z m 23.71198,-0.0829 c -19.77497,-0.43767 -6.09704,1.24513 0,0 z m 24.26898,-0.005 c -10.4943,-0.78903 -15.62683,0.97234 -1.30709,0.41495 -0.60181,0.52633 5.45032,-0.53895 1.30709,-0.41495 z m 15.96725,0.0631 c -7.29051,-1.18931 2.20258,2.29338 0,0 z m 8.94352,-0.0118 c -9.49025,-0.93505 0.73329,1.91036 0,6e-5 l 0,-6e-5 z m 18.99213,-0.0276 c -14.30772,-0.5946 -2.93729,1.42834 0,0 z M 241.6438,200.89836 c -0.57087,-6.24692 -0.57087,32.92287 0,26.67595 0.21327,-8.88974 0.21327,-17.78622 0,-26.67595 z m 8.59972,37.04993 c 8.454,-0.99618 11.33765,-4.69875 9.48478,-14.51143 0,-11.36603 0,-22.73205 0,-34.09808 -6.71288,-0.18569 -14.92374,-1.86936 -11.85598,7.7256 0.32193,14.40563 -0.88783,29.00274 1.1856,43.25511 l 0.83733,-0.69654 0.34827,-1.67466 z m 82.99187,-23.11916 c 0,-8.49679 0,-16.99356 0,-25.49035 -6.84945,0.0729 -16.20228,-2.35749 -13.04158,7.7256 0,12.83757 0,25.67515 0,38.51272 8.18301,-1.88755 13.59728,11.37408 12.9544,-3.89097 0.10576,-5.6183 0.0785,-11.23802 0.0871,-16.857 z m 2.07066,-13.93077 c -0.57087,-6.24692 -0.57087,32.92287 0,26.67595 0.21327,-8.88974 0.21327,-17.78622 0,-26.67595 z m -76.48077,37.39701 c -10.44411,-0.5569 -2.20182,1.3242 0,0 z m 42.6323,-0.0465 c -9.55438,-0.59631 -39.24201,0.36399 -13.85236,0.38549 2.26779,-0.0396 22.27576,0.11701 13.85236,-0.38549 z m 23.15966,0.0634 c -9.49025,-0.93505 0.73329,1.91037 0,6e-5 l 0,-6e-5 z m -37.62017,-25.85438 c 0,-7.70639 0,-15.41278 0,-23.11916 -5.44897,0.84691 -14.18079,-1.58902 -17.78398,1.10366 0,15.04488 0,30.08978 0,45.13466 5.44898,-0.84691 14.18078,1.58902 17.78398,-1.10366 0,-7.3385 0,-14.67701 0,-22.0155 z m 24.89755,0 c 0,-7.70639 0,-15.41278 0,-23.11916 -6.71839,0 -13.43677,0 -20.15516,0 0,15.41277 0,30.82554 0,46.23832 6.71839,0 13.43677,0 20.15516,0 0,-7.70639 0,-15.41278 0,-23.11916 z m 6.81231,-12.74518 c -0.87629,-4.80701 -0.17971,45.45828 0.14859,15.4397 0.0255,-5.14679 0.005,-10.2948 -0.14859,-15.4397 z m -66.42438,-15.98929 c -10.49431,-0.78903 -15.62683,0.97234 -1.3071,0.41494 -0.6018,0.52634 5.45033,-0.53895 1.3071,-0.41494 z m 52.13306,-0.0135 c -7.53497,-0.45989 -46.48644,0.0949 -22.59074,0.35583 2.41144,-0.0322 33.49058,0.1786 22.59074,-0.35583 z m 34.45137,0.0149 c -22.06922,-0.42063 -6.87003,1.20247 0,0 z m -94.25505,-2.33645 c -11.91486,-0.69073 -2.09661,1.57899 0,0 z m 11.26318,0.0195 c -10.42706,-0.73436 0.3995,1.8177 0,0 z m 9.46222,-0.005 c -9.49025,-0.93523 0.73329,1.91027 0,-6e-5 l 0,6e-5 z m 34.99771,-0.0605 c -9.54645,-0.63442 -32.87541,0.45414 -9.78118,0.39943 1.49815,-0.0338 16.07742,0.0851 9.78118,-0.39943 z m 17.16861,0.0605 c -9.49025,-0.93523 0.7333,1.91027 0,-6e-5 l 0,6e-5 z m 10.69295,0.005 c -10.42708,-0.73436 0.3995,1.8177 0,0 z m 13.65068,-0.0173 c -16.92464,-0.36463 -0.75663,1.32124 0,0 z m -67.14719,-38.29012 c 1.51963,-9.37542 8.40396,-37.36008 6.02117,-34.75326 -9.92775,23.42281 -20.17922,46.79797 -28.99512,70.63205 7.70165,1.46976 18.74802,2.75508 17.30925,-8.36593 1.88823,-9.17095 3.77646,-18.34191 5.6647,-27.51286 z m 33.26915,34.08594 c -6.18512,-28.87491 -11.4084,-57.96515 -18.1844,-86.707592 -6.2708,29.766702 -11.94813,59.661192 -18.45762,89.375182 12.42257,0 24.84512,0 37.26767,0 -0.20854,-0.88919 -0.4171,-1.77839 -0.62565,-2.66759 z m 19.93518,0.30968 c -9.72402,-24.56587 -19.72912,-49.03335 -30.20169,-73.28946 4.99877,24.88548 9.36035,50.08828 15.54892,74.61417 3.24548,0.76631 14.67711,3.45457 14.65277,-1.32471 z M 295.33534,93.898138 c 3.94817,-7.39998 -7.6879,9.721672 0,0 z M 169.84517,71.154688 c -7.2899,-1.18922 2.20231,2.29361 0,0 z m 14.22716,-1.1856 c -7.28989,-1.18922 2.20231,2.29361 0,0 z m 216.96444,0 c -7.28992,-1.18923 2.20232,2.29361 0,0 z m -190.28036,-4.68937 c 10.57431,-1.25356 40.35156,-2.33507 39.29695,-4.075702 -25.94482,-2.119097 -51.9041,-4.910278 -77.91357,-5.702607 -7.22883,4.554968 -12.93003,19.918869 2.14237,12.788459 12.15066,-1.09069 24.3118,-2.06131 36.47425,-3.01015 z m -12.4569,3.50377 c -7.2899,-1.18921 2.20231,2.29361 0,0 z m 173.09731,-1.1856 c -7.28992,-1.18922 2.20232,2.29361 0,0 z m 41.02371,-6.317751 c 8.79595,-15.411941 -23.92043,-1.873596 -32.0666,-4.634798 -13.05244,1.896454 -41.88476,1.89835 -46.8264,5.173112 24.56133,2.621197 49.35046,4.962227 73.93294,6.106157 2.3937,-1.53762 3.49328,-4.364 4.96006,-6.644471 z m -184.48107,5.132151 c -7.2899,-1.18921 2.20231,2.29361 0,0 z m 128.04459,0 c -7.28992,-1.18922 2.20232,2.29361 0,0 z m -113.81742,-1.18559 c -7.28989,-1.18922 2.20231,2.29361 0,0 z m 98.40465,0 c -7.28993,-1.18923 2.20231,2.29361 0,0 z m -84.17747,-1.1856 c -7.2899,-1.18922 2.20231,2.29361 0,0 z m 41.27364,-0.3757 c 20.34641,-2.780072 -13.29634,-6.682741 -20.09406,-2.686872 -18.52317,2.358402 6.33676,1.596592 12.38767,3.872472 2.56674,-0.19241 5.37342,0.22216 7.70639,-1.1856 z m 13.26388,-0.8099 c -7.28993,-1.189225 2.20232,2.29361 0,0 z M 250.46582,58.11311 c -7.2899,-1.189223 2.20231,2.293602 0,0 z m 79.43507,0 c -7.28992,-1.189229 2.20232,2.293603 0,0 z m -94.84784,-1.185598 c -7.2899,-1.189223 2.2023,2.293602 0,0 z m 109.07502,0 c -7.28992,-1.189229 2.20232,2.293603 0,0 z m -124.4878,-1.185598 c -7.2899,-1.189223 2.20231,2.293602 0,0 z m 138.71497,0 c -7.28992,-1.189229 2.20232,2.293603 0,0 z M 190.00032,53.370718 c -7.2899,-1.189223 2.20231,2.293602 0,0 z m 197.99487,0 c -7.28992,-1.189229 2.20232,2.293603 0,0 z M 174.58756,52.18512 c -7.2899,-1.189223 2.2023,2.293602 0,0 z m 227.63481,0 c -7.28992,-1.189229 2.20232,2.293603 0,0 z m 14.22717,-1.185598 c -7.28992,-1.189228 2.20232,2.293603 0,0 z"
   id="path3364"
   inkscape:connector-curvature="0" /></svg>