<?xml version="1.0" encoding="UTF-8" standalone="no"?>
<!-- Created with Inkscape (http://www.inkscape.org/) -->

<svg
   xmlns:dc="http://purl.org/dc/elements/1.1/"
   xmlns:cc="http://creativecommons.org/ns#"
   xmlns:rdf="http://www.w3.org/1999/02/22-rdf-syntax-ns#"
   xmlns:svg="http://www.w3.org/2000/svg"
   xmlns="http://www.w3.org/2000/svg"
   xmlns:sodipodi="http://sodipodi.sourceforge.net/DTD/sodipodi-0.dtd"
   xmlns:inkscape="http://www.inkscape.org/namespaces/inkscape"
   version="1.1"
   id="svg4518"
   width="256"
   height="256"
   viewBox="0 0 256 256"
   sodipodi:docname="star.svg"
   inkscape:version="0.92.3 (2405546, 2018-03-11)">
  <metadata
     id="metadata4524">
    <rdf:RDF>
      <cc:Work
         rdf:about="">
        <dc:format>image/svg+xml</dc:format>
        <dc:type
           rdf:resource="http://purl.org/dc/dcmitype/StillImage" />
        <dc:title></dc:title>
      </cc:Work>
    </rdf:RDF>
  </metadata>
  <defs
     id="defs4522" />
  <sodipodi:namedview
     pagecolor="#ffffff"
     bordercolor="#666666"
     borderopacity="1"
     objecttolerance="10"
     gridtolerance="10"
     guidetolerance="10"
     inkscape:pageopacity="0"
     inkscape:pageshadow="2"
     inkscape:window-width="1387"
     inkscape:window-height="849"
     id="namedview4520"
     showgrid="false"
     inkscape:zoom="0.83972969"
     inkscape:cx="128"
     inkscape:cy="186.12334"
     inkscape:window-x="567"
     inkscape:window-y="25"
     inkscape:window-maximized="0"
     inkscape:current-layer="svg4518" />
  <g
     transform="translate(-309.41329,-276.3206)"
     id="Layer_2"
     style="fill:#f0f0ec;fill-opacity:1"
     inkscape:export-filename="C:\Users\simon\git\xmas-preset\icons\png\Layer_2.png"
     inkscape:export-xdpi="7.4369802"
     inkscape:export-ydpi="7.4369802">
    <g
       id="g1327"
       style="fill:#f0f0ec;fill-opacity:1">
      <path
         inkscape:connector-curvature="0"
         id="path1329"
         d="M 66.275,1.768 C 24.94,1.768 1.704,23.139 1.704,66.804 v 450.123 c 0,40.844 20.895,62.229 62.192,62.229 H 515.92 c 41.307,0 62.229,-20.315 62.229,-62.229 V 66.804 c 0,-42.601 -20.923,-65.036 -63.521,-65.036 -0.004,0 -448.495,-0.143 -448.353,0 z"
         style="fill:#f0f0ec;fill-opacity:1;stroke:#eeeeee;stroke-width:3.40799999" />
    </g>
  </g>
  <g
     id="g4528"
     transform="matrix(2.0117135,0,0,2.0117135,-276.885,-243.28245)">
    <path
       style="fill:#f6e897"
       d="M 92.214181,251.52677 C 88.271676,248.20937 87.591542,245.12794 83.949803,214.084 80.746591,186.77827 79.833033,182.95257 74.496011,174.4944 68.947763,165.70148 62.748199,161.31171 36.625945,147.67948 10.47215,134.03078 7,131.43136 7,125.5 7,119.24176 9.9698285,117.21676 38.598273,103.95447 69.484274,89.646363 72.861132,87.214726 79.679653,74.372249 83.608266,66.972825 84.105511,65.058505 87.958484,42.5 93.665811,9.084568 93.836875,8.3473139 96.661867,4.9900011 98.678814,2.5929955 99.9665,2 103.15464,2 c 2.18726,0 4.80013,0.4406079 5.80636,0.9791287 1.00624,0.5385208 10.91399,10.6624713 22.01723,22.4976673 19.90948,21.221969 20.31405,21.580601 29.35474,26.021568 13.03867,6.404858 14.96759,6.4695 47.70841,1.598822 15.14777,-2.253453 28.87277,-4.095504 30.5,-4.093448 4.04233,0.0051 9.26727,3.385675 10.04942,6.502033 1.17843,4.695219 -0.50907,8.656749 -14.10154,33.104417 -15.25906,27.445212 -15.20535,27.327582 -16.43171,35.987292 -1.83733,12.97385 -0.36949,17.99403 14.00605,47.90252 14.23,29.60568 15.19851,33.02623 10.5798,37.36529 -1.29614,1.21765 -3.88364,2.448 -5.75,2.7341 -2.03594,0.3121 -14.91663,-1.70404 -32.19934,-5.03999 -27.40477,-5.28972 -29.14697,-5.50727 -35.81696,-4.47238 -3.85606,0.59829 -10.37476,2.6207 -14.48599,4.49425 -6.68603,3.04692 -9.64216,5.4916 -28.00846,23.16259 -11.29341,10.86588 -21.95502,20.54364 -23.69246,21.50614 -4.305804,2.38531 -7.003012,2.1991 -10.476009,-0.72323 z"
       id="path4542"
       inkscape:connector-curvature="0" />
    <path
       style="fill:#fcef6d"
       d="m 93.941736,251.52849 c -1.407044,-0.7653 -3.100608,-2.58176 -3.763473,-4.03659 -0.662866,-1.45483 -2.774125,-15.41873 -4.691688,-31.03088 C 81.675335,185.43118 80.477166,180.78491 73.92803,171.63914 68.256982,163.71962 64.415097,161.11901 37.528511,147 24.43657,140.125 12.436861,133.22788 10.862491,131.67308 9.0450659,129.87823 8,127.80698 8,125.9998 c 0,-3.45121 3.799186,-8.20342 8.238377,-10.30496 1.793893,-0.84923 13.822649,-6.52816 26.73057,-12.61984 C 70.015692,90.310743 74.074014,87.195734 80.999356,73.884353 84.74849,66.678043 85.302128,64.431236 89.967011,37.491245 92.701518,21.6993 95.493015,8.0409287 96.170339,7.1393089 98.538974,3.9862966 100.41043,3 104.02452,3 108.61,3 110.04543,4.2776851 131.54931,27.5 149.11542,46.469873 152.52353,49.357006 163,54.143073 c 10.05284,4.592532 14.61344,4.580445 46.5,-0.123241 15.59373,-2.300281 29.42081,-3.867864 31.20667,-3.537916 3.80611,0.703203 7.29333,4.736069 7.29333,8.43452 0,1.469829 -4.49518,10.858882 -10.10926,21.115141 -20.058,36.643583 -19.76467,36.028593 -20.85658,43.727553 -0.69188,4.87842 -0.69369,9.69754 -0.006,14.9679 0.91272,6.99097 2.32316,10.43901 14.01954,34.27297 13.02018,26.53152 14.37033,30.48113 11.95958,34.98566 -0.54578,1.01979 -2.56391,2.37284 -4.48474,3.00677 -3.03026,1.00007 -7.41066,0.40693 -33.10192,-4.48231 -28.16342,-5.35971 -29.95245,-5.5817 -36.6317,-4.54538 -4.25269,0.65982 -10.23004,2.62316 -15.15576,4.97809 -7.3584,3.51796 -10.07156,5.76326 -28.46859,23.55942 -17.60305,17.0281 -24.55576,22.62803 -27.882851,22.45771 -0.430166,-0.022 -1.933338,-0.66618 -3.340383,-1.43147 z m 36.573494,-85.57648 c 1.29155,-4.0693 -4.32095,-6.90849 -6.38075,-3.22783 -1.36905,2.44636 0.41862,5.27582 3.33332,5.27582 1.53789,0 2.63047,-0.73425 3.04743,-2.04799 z m 39.1753,-15.58793 c 0.90925,-2.36947 -1.03236,-4.86408 -3.78582,-4.86408 -2.44841,0 -3.58585,2.28259 -2.52067,5.05841 0.76019,1.98103 5.52811,1.8341 6.30649,-0.19433 z m -57.73621,-21.80904 c 0.65956,-0.79472 1.05216,-2.48222 0.87244,-3.75 -0.25218,-1.77893 -1.06071,-2.37598 -3.54245,-2.61584 -2.7773,-0.26843 -3.30863,0.0595 -3.89746,2.40559 -1.057,4.21143 3.88551,7.19181 6.56747,3.96025 z m 62.00581,-26.007 C 176.04249,100.03895 174.80514,97.5 171.5,97.5 c -2.06626,0 -3.07819,0.548224 -3.31888,1.798039 C 167.78408,101.3597 169.64773,104 171.5,104 c 0.69031,0 1.79737,-0.65338 2.46013,-1.45196 z m -44,-17.000001 C 132.61659,82.347205 128.7149,77.430267 125.25,79.612298 121.78767,81.792712 123.02117,87 127,87 c 0.96531,0 2.29737,-0.653382 2.96013,-1.451961 z"
       id="path4540"
       inkscape:connector-curvature="0" />
    <path
       style="fill:#fce54e"
       d="M 92.289249,249.75 C 89.381022,246.57258 89.342054,246.37379 85.558603,215.41528 83.682258,200.06187 81.454294,185.57434 80.607572,183.22075 78.372088,177.0069 72.536883,168.65824 67.007786,163.76301 64.056662,161.1502 52.683,154.5372 37.625945,146.67948 12.670732,133.65628 8,130.31719 8,125.5 8,120.39471 12.077924,117.75172 39.671817,104.97285 71.234891,90.355828 74.606374,87.795617 81.776126,73 85.594669,65.119995 86.198732,62.647989 90.057711,39.109306 92.347142,25.144424 94.609995,12.359867 95.086275,10.699178 96.447874,5.9515587 99.81391,3 103.86662,3 c 3.84103,0 4.1573,0.2932412 35.13338,32.57495 12.17052,12.6835 14.28784,14.446328 21.5,17.900343 11.78255,5.642847 16.59966,5.697108 50.64204,0.570446 25.85269,-3.893322 27.87601,-4.065035 31.25637,-2.652635 4.04445,1.689882 6.08436,5.529964 5.08259,9.567863 -0.34645,1.396468 -7.15924,14.322363 -15.13953,28.72421 -16.71451,30.164293 -17.66475,33.145603 -15.56548,48.835403 1.05263,7.86722 2.09275,10.43479 14.17998,35.00365 13.96869,28.39316 14.88257,31.39992 10.72958,35.30146 -3.44333,3.23483 -8.50811,2.84465 -38.06151,-2.9322 -31.02649,-6.0648 -34.69315,-6.07626 -48.49248,-0.1516 -7.75868,3.33113 -9.84508,4.8717 -20.63156,15.23402 C 100.24498,253.8839 102.44752,252 98.228446,252 c -2.746662,0 -4.481289,-0.65714 -5.939197,-2.25 z m 40.743481,-74.26693 c 6.21134,-3.21201 8.0015,-12.91208 3.39357,-18.38828 -1.41553,-1.68227 -4.24966,-3.5608 -6.29807,-4.17452 -10.76996,-3.22676 -19.71192,10.47888 -12.45979,19.09754 4.27393,5.07928 9.82295,6.33081 15.36429,3.46526 z m 39.77745,-16.5087 C 175.97643,157.04395 179,151.89489 179,148.43325 c 0,-3.72395 -3.25828,-8.29234 -7.53087,-10.55895 -4.17325,-2.2139 -4.624,-2.25843 -8.65326,-0.85493 -8.01202,2.79081 -11.09247,11.30662 -6.53585,18.06818 4.08989,6.069 10.48469,7.57264 16.53016,3.88682 z m -55.14497,-22.68073 c 3.00379,-1.95962 5.62704,-8.92227 4.87397,-12.9365 -0.66205,-3.52903 -4.51334,-7.30198 -10.21573,-10.00794 -3.20023,-1.51861 -4.01455,-1.54771 -7.66932,-0.2741 -2.61283,0.91051 -4.945103,2.6884 -6.460603,4.9249 -4.433546,6.54282 -1.595183,17.36638 5.230583,19.94584 2.76354,1.04434 11.69627,0.008 14.2411,-1.6522 z m 60.82111,-26.46154 c 5.94012,-4.6725 6.61227,-12.374042 1.55264,-17.790389 -5.80983,-6.219445 -15.59925,-4.550657 -19.04861,3.247189 -1.55845,3.523154 -1.73624,5.04755 -0.92945,7.9695 2.19305,7.94256 12.16313,11.49962 18.42542,6.5737 z M 134.86424,93.269371 c 1.44967,-1.072803 3.29688,-3.822285 4.10493,-6.109961 1.29222,-3.658455 1.29222,-4.660365 0,-8.31882 C 136.96906,73.178025 133.12596,70.5 127,70.5 c -6.12596,0 -9.96906,2.678025 -11.96917,8.34059 -4.21379,11.929837 9.61532,21.9905 19.83341,14.428781 z"
       id="path4538"
       inkscape:connector-curvature="0" />
    <path
       style="fill:#fcd92e"
       d="M 93.251808,250.46382 C 90.11723,248.26828 89.369163,244.64907 85.921669,215 84.10533,199.37916 82.078296,186.33099 80.984119,183.21661 78.699669,176.71433 71.332253,166.21284 66.271701,162.24557 64.197265,160.6193 52.375,153.99889 40,147.53355 27.625,141.06822 15.9873,134.86053 14.138443,133.73869 7.4089956,129.65544 7.0174756,122.00327 13.33845,118.10299 c 1.738852,-1.07293 13.957202,-6.9591 27.151888,-13.08036 13.194686,-6.121265 25.916245,-12.630033 28.270132,-14.463929 5.667922,-4.415838 9.715241,-9.613269 13.831464,-17.761901 2.996371,-5.931731 3.923981,-9.931464 8.059878,-34.75315 3.055034,-18.334859 5.299372,-29.0786126 6.479977,-31.0199625 2.159135,-3.5504128 5.838971,-4.6926526 9.813761,-3.0462404 1.5987,0.6622039 11.82519,10.8751869 22.72553,22.6955189 l 19.8188,21.491511 10.00506,4.921667 c 13.97087,6.872518 15.52786,6.937961 47.74238,2.006694 30.87932,-4.726879 33.50526,-4.869766 37.12782,-2.020258 5.03178,3.957996 4.10221,6.747891 -11.79839,35.410169 C 224.62846,102.79224 217.60217,116.525 216.95278,119 c -1.44432,5.50465 -1.47225,17.87313 -0.0545,24.11143 0.57643,2.53629 6.74539,16.24735 13.7088,30.46903 13.79464,28.17341 14.91545,31.95848 10.51779,35.51948 -3.28236,2.6579 -7.19574,2.42422 -27.20559,-1.62452 -33.16574,-6.71067 -37.76308,-7.35192 -45.26474,-6.31373 -4.31495,0.59717 -9.86067,2.37992 -15.00223,4.82267 -7.43124,3.53057 -9.98568,5.6485 -28.7174,23.81011 -11.30834,10.96416 -21.51525,20.44574 -22.68203,21.07018 -2.938859,1.57283 -6.403591,1.41854 -9.001102,-0.40083 z m 39.025522,-66.52395 c 4.30147,-1.19452 10.16176,-5.95451 12.2119,-9.91904 1.24844,-2.41422 1.19059,-2.85049 -0.57881,-4.3655 C 141.3672,167.47775 142.93738,164 146.46376,164 c 1.31636,0 3.06838,-0.675 3.89338,-1.5 1.85574,-1.85573 4.64286,-1.96037 4.64286,-0.17431 0,4.52005 9.80631,7.85527 16.64742,5.66195 9.80982,-3.14512 14.811,-10.44741 14.15976,-20.67488 -0.35793,-5.62116 -0.77282,-6.68849 -3.60582,-9.27603 C 179.90017,135.93492 179,134.22991 179,131.97304 c 0,-2.07135 -0.42534,-2.99536 -1.25,-2.71549 -0.6875,0.23332 -1.25,1.95832 -1.25,3.83333 0,1.87502 -0.3375,3.52162 -0.75,3.65912 -2.27546,0.75849 -2.87726,-0.0563 -2.58516,-3.5 l 0.31807,-3.75 -6.99146,0.34749 c -3.8453,0.19112 -8.49411,1.04895 -10.33069,1.90629 -3.81264,1.77979 -7.98106,7.5156 -9.11469,12.54194 -0.75923,3.36633 -0.0278,10.52068 1.42663,13.95428 0.5159,1.21792 0.28564,1.75 -0.7573,1.75 -0.82422,0 -1.77887,-1.11675 -2.12144,-2.48166 -0.99331,-3.95768 -6.30764,-9.24358 -11.15412,-11.09447 -3.30435,-1.26194 -6.01295,-1.54436 -10.40687,-1.0851 -3.82936,0.40024 -6.17759,0.23624 -6.60887,-0.46157 -0.37209,-0.60206 2.24375,-3.71124 5.89443,-7.00612 6.80708,-6.14364 8.24817,-8.5102 7.19768,-11.82002 -0.77085,-2.4287 -13.37514,-12.61907 -19.36606,-15.65714 -0.74242,-0.37649 -2.40946,-1.74414 -3.70455,-3.03923 -3.0241,-3.0241 -6.0622,-2.97925 -10.678525,0.15762 -11.044758,7.50511 -12.609131,23.39912 -3.263111,33.15317 3.575298,3.73139 4.665113,4.33019 6.872566,3.77615 3.89326,-0.97714 7.13433,0.1894 8.43059,3.03439 1.48845,3.26678 4.61139,3.4997 3.67337,0.27398 -0.35985,-1.2375 -1.51518,-2.99713 -2.56739,-3.91029 -1.0522,-0.91316 -1.9131,-2.15066 -1.9131,-2.75 0,-2.27333 3.48634,-0.94958 6.679,2.53598 3.79091,4.13872 4.37052,7.37431 1.321,7.37431 -1.1,0 -2,0.45965 -2,1.02144 0,0.56179 -1.06757,1.50786 -2.37238,2.10237 -2.30855,1.05184 -4.63436,6.33152 -4.62204,10.49221 0.0233,7.86879 6.39694,16.51972 13.86528,18.81931 5.74145,1.76786 6.70398,1.81044 11.40647,0.50454 z M 154,166.96482 C 154,166.43417 153.3801,166 152.62244,166 c -1.66192,0 -3.85612,2.43298 -2.98228,3.30683 0.81298,0.81298 4.35984,-1.09231 4.35984,-2.34201 z m 28.49357,-50.70993 c 4.83032,-3.35367 8.51459,-10.17847 8.48447,-15.71678 -0.0409,-7.511046 -5.67124,-15.972566 -12.29314,-18.474492 -6.19903,-2.342156 -16.40094,-0.520549 -19.76135,3.528497 -0.89851,1.082642 -0.85888,1.780886 0.17157,3.022501 1.98726,2.394501 -2.38941,5.776526 -6.42969,4.96847 -2.45057,-0.490115 -2.72095,-0.354909 -1.71475,0.857492 0.65701,0.791644 2.16978,1.578869 3.36172,1.749388 3.25796,0.466082 3.35929,3.604158 0.15573,4.822154 -2.29024,0.87075 -2.5787,1.41343 -1.99481,3.75291 1.58473,6.34969 7.13646,12.3117 13.31804,14.3023 4.68904,1.50996 12.32971,0.22337 16.70221,-2.81244 z M 135.68949,102.05402 C 139.77479,100.19927 145,93.794838 145,90.642317 145,89.873732 145.675,88.684689 146.5,88 149.7256,85.32299 147.6083,74.901346 142.70403,69.315686 132.56001,57.762295 114.39239,60.468174 107.89586,74.5 c -2.06128,4.452165 -2.43401,10.954348 -0.86458,15.08228 1.52585,4.013279 8.53568,10.41772 11.40248,10.41772 1.55321,0 2.66075,0.72241 3.06624,2 0.5172,1.62956 1.5021,1.99593 5.31739,1.97804 2.57543,-0.0121 6.56788,-0.87789 8.8721,-1.92402 z"
       id="path4536"
       inkscape:connector-curvature="0" />
    <path
       style="fill:#fbcb08"
       d="m 94.230243,250.44872 c -1.218123,-0.85321 -2.679716,-2.42005 -3.247983,-3.48187 -0.568268,-1.06182 -2.567166,-15.29235 -4.441996,-31.6234 -3.32414,-28.95553 -3.497894,-29.87313 -6.99762,-36.95434 C 73.070848,165.29432 68.15697,161.40099 39.480994,146.64778 25.741447,139.57906 13.2625,132.63237 11.75,131.21069 8.2122096,127.88533 8.0516096,123.23959 11.366781,120.12515 12.66851,118.90224 23.578288,113.39234 35.610732,107.88093 47.643176,102.36952 59.740624,96.738008 62.493951,95.366453 69.558934,91.84707 77.410278,83.76316 82.247726,75.027548 86.278087,67.749397 86.510294,66.800532 91.177945,38.535983 96.194817,8.1567637 97.226475,4.8658206 101.95204,4.1671202 c 1.23826,-0.1830838 3.2788,-0.075015 4.53453,0.2401527 1.25573,0.3151679 9.8446,8.7899641 19.08639,18.8328801 23.31406,25.335051 24.48993,26.401604 34.30855,31.119033 11.72696,5.634302 18.5579,5.887005 45.11849,1.669108 34.28249,-5.444154 34.3462,-5.450784 37.56366,-3.908694 3.25786,1.561448 5.02451,5.423949 4.11188,8.989968 C 246.33907,62.424305 240.82948,72.725 234.432,84 c -6.39748,11.275 -12.99321,23.1082 -14.65717,26.296 -4.08388,7.82382 -5.4983,17.87223 -4.06434,28.87401 1.01459,7.7842 1.946,10.03354 14.21542,34.32999 14.45426,28.62299 15.3265,31.58309 10.43923,35.42742 -1.44917,1.13992 -3.59697,2.07258 -4.7729,2.07258 -1.17592,0 -14.24703,-2.475 -29.04691,-5.5 -14.79989,-3.025 -28.79066,-5.5 -31.09062,-5.5 -7.16074,0 -14.30044,1.83022 -22.78435,5.84063 -7.50126,3.5459 -9.86029,5.5107 -28.80589,23.99201 C 105.92428,247.33318 100.30173,252 97.157407,252 c -0.391817,0 -1.709041,-0.69808 -2.927164,-1.55128 z m 42.975027,-58.003 c 5.75612,-1.9613 12.26249,-7.48213 14.89186,-12.63612 1.51908,-2.97763 2.45169,-3.81182 3.71551,-3.32341 7.89144,3.04973 17.22678,2.24998 25.35102,-2.17178 11.7646,-6.4031 17.83207,-22.16251 13.3618,-34.70544 -1.20562,-3.38281 -1.18906,-4.19275 0.12682,-6.20104 1.51134,-2.30659 1.07116,-6.40793 -0.68773,-6.40793 -0.49537,0 -1.47755,1.04319 -2.18261,2.31819 l -1.28194,2.3182 -3.89158,-2.2193 -3.89158,-2.2193 2.89158,-1.51648 c 1.59037,-0.83406 4.55687,-3.24106 6.59223,-5.34889 10.73725,-11.11957 10.82359,-28.950384 0.19314,-39.888307 C 185.08114,72.919945 180.42452,71.49187 165,72.043076 158.26711,72.28368 155.03044,71.008608 153.5835,67.545594 150.13004,59.280306 139.46288,52.747094 128.5,52.182942 110.32127,51.247462 97.18528,63.639038 96.186668,82.665091 95.849359,89.09167 95.339336,91.287918 93.876885,92.611417 92.844598,93.545624 92,95.376369 92,96.679738 92,98.247507 91.204113,99.352097 89.648284,99.943622 87.089924,100.91631 82.377763,106.45282 79.387015,112 77.896796,114.76403 77.5,117.60277 77.5,125.5 c 0,8.5668 0.33792,10.64494 2.357799,14.5 2.958758,5.64697 7.972769,11.00225 9.685695,10.34494 C 91.059363,149.76324 95,153.37425 95,155.34501 c 0,0.73976 0.883837,2.14488 1.964082,3.12248 1.598377,1.44652 1.852728,2.58989 1.366035,6.14069 C 96.352695,179.03506 110.64927,194 126.40923,194 c 3.42897,0 8.28719,-0.69942 10.79604,-1.55428 z m 10.39129,-17.28949 c -0.34605,-0.55992 -0.1419,-1.31919 0.45366,-1.68727 1.53748,-0.95021 2.52947,0.35135 1.24598,1.63484 -0.71818,0.71818 -1.27752,0.73543 -1.69964,0.0524 z M 135.75,136.63849 c -4.21474,-1.11406 -4.68174,-2.4853 -1.75,-5.13849 1.1,-0.99549 2,-2.40121 2,-3.12383 0,-0.72261 -3.39165,-4.14037 -7.53699,-7.59501 l -7.537,-6.28116 7.287,-0.57906 c 4.00784,-0.31849 9.02945,-1.33099 11.15911,-2.25 2.12967,-0.91902 4.03303,-1.67094 4.22968,-1.67094 0.19665,0 1.22877,1.70773 2.29359,3.79495 1.06482,2.08722 4.03317,5.72802 6.59633,8.09066 2.56317,2.36264 4.51359,4.43839 4.33429,4.61277 -0.17931,0.17439 -2.97524,0.80473 -6.2132,1.40076 -6.44342,1.18607 -8.61281,2.45357 -8.61281,5.03218 0,3.46849 -2.20497,4.77636 -6.25,3.70717 z M 182,135 c 0,-0.55 0.45,-1 1,-1 0.55,0 1,0.45 1,1 0,0.55 -0.45,1 -1,1 -0.55,0 -1,-0.45 -1,-1 z M 95,99.559017 C 95,98.701558 95.45,98 96,98 c 0.55,0 1,0.423442 1,0.940983 0,0.517541 -0.45,1.219097 -1,1.559017 -0.55,0.33992 -1,-0.0835 -1,-0.940983 z m 16.07895,-0.14235 c 0.048,-1.164943 0.28494,-1.4019 0.60416,-0.604167 0.28887,0.721875 0.25335,1.58437 -0.0789,1.91667 -0.3323,0.33229 -0.56864,-0.25834 -0.52522,-1.312503 z m -14.063637,-5.17328 c 0.02036,-3.647146 1.415442,-5.675805 3.383767,-4.920489 2.31444,0.888135 1.96922,2.9962 -0.89908,5.490153 L 97,96.986773 97.01531,94.243387 Z M 160,78 c 0,-0.55 0.9,-1 2,-1 1.1,0 2,0.45 2,1 0,0.55 -0.9,1 -2,1 -1.1,0 -2,-0.45 -2,-1 z m 0.77749,111.4433 C 163.46261,187.56257 163.65434,186 161.2,186 c -2.10574,0 -4.2,1.84494 -4.2,3.7 0,1.71352 1.06825,1.64093 3.77749,-0.2567 z m -2.71175,-5.47848 C 160.49146,182.66661 160.5969,180 158.22251,180 c -0.97763,0 -2.78515,0.70579 -4.01673,1.56842 -3.79087,2.65523 -0.47278,4.71521 3.85996,2.3964 z M 96,162 c 0,-1.53371 -3.812917,-5 -5.5,-5 -2.077544,0 -1.874336,1.62566 0.5,4 2.110562,2.11056 5,2.68845 5,1 z m 105.98469,-30.75 c -0.0255,-2.90926 -1.71837,-4.91632 -3.03569,-3.599 -0.84305,0.84305 -0.84471,1.67536 -0.006,3.24164 1.36899,2.55798 3.06314,2.75699 3.04215,0.35736 z"
       id="path4534"
       inkscape:connector-curvature="0" />
    <path
       style="fill:#e9b600"
       d="m 94.230243,250.44872 c -1.218123,-0.85321 -2.677429,-2.41578 -3.242901,-3.47237 -0.998897,-1.86646 -5.19935,-36.34827 -6.392485,-52.47635 -0.566003,-7.65089 -0.52442,-7.87112 0.952901,-5.04656 7.165418,13.6999 24.195262,23.48131 40.958842,23.52547 4.40363,0.0116 9.47653,-0.40048 11.27311,-0.91573 l 3.2665,-0.93682 -1.95564,2.68682 c -3.97396,5.45975 -35.68589,36.12514 -38.40567,37.13823 -3.630764,1.35242 -3.828053,1.33705 -6.454657,-0.50269 z M 227.5,209.8398 c -2.75,-0.51508 -15.575,-3.21642 -28.5,-6.00298 -23.0652,-4.97274 -23.63704,-5.04416 -30.90686,-3.86007 -4.07377,0.66352 -8.05583,1.45544 -8.84902,1.75981 -1.20573,0.46269 -1.2365,0.2241 -0.18767,-1.45535 1.0156,-1.62623 2.71647,-2.12149 8.93176,-2.60078 14.45104,-1.11439 28.65695,-8.26703 36.02327,-18.13765 7.27104,-9.74292 10.95472,-19.57829 10.97665,-29.30748 l 0.0119,-5.2647 5.1327,9.7647 c 24.64871,46.89288 25.7527,49.84988 20.23244,54.19212 -2.82712,2.22382 -5.02955,2.38001 -12.86514,0.91238 z M 155,195.55902 C 155,194.70156 155.45,194 156,194 c 0.55,0 1,0.42344 1,0.94098 0,0.51754 -0.45,1.2191 -1,1.55902 -0.55,0.33992 -1,-0.0835 -1,-0.94098 z M 74.64968,169.65253 c -2.568553,-3.49857 -5.453004,-7.05921 -6.409889,-7.91255 -0.956885,-0.85333 -13.439539,-7.46726 -27.739231,-14.69763 -14.299692,-7.23037 -27.237192,-14.33197 -28.75,-15.78133 -3.7752921,-3.61696 -3.7430706,-8.24809 0.07977,-11.4648 4.863512,-4.09237 52.222844,-25.018559 52.13787,-23.037627 -0.01749,0.407774 -0.705859,1.633196 -1.529705,2.72316 -0.823845,1.089967 -2.632034,5.571917 -4.018196,9.959897 -4.12596,13.06098 -3.096153,28.31808 2.688997,39.83885 3.182806,6.33836 9.482274,14.16445 13.822433,17.17219 2.758833,1.91187 3.998547,3.58393 4.345619,5.86115 0.267082,1.75239 0.385891,3.30171 0.264018,3.44294 -0.121872,0.14123 -2.323129,-2.60569 -4.891683,-6.10425 z M 84,158 c 0,-0.55 0.45,-1 1,-1 0.55,0 1,0.45 1,1 0,0.55 -0.45,1 -1,1 -0.55,0 -1,-0.45 -1,-1 z m 130.15789,-19 c 0,-1.375 0.22698,-1.9375 0.50439,-1.25 0.27741,0.6875 0.27741,1.8125 0,2.5 -0.27741,0.6875 -0.50439,0.125 -0.50439,-1.25 z M 204,135.5 c 0,-0.825 0.45,-1.5 1,-1.5 0.55,0 1,0.675 1,1.5 0,0.825 -0.45,1.5 -1,1.5 -0.55,0 -1,-0.675 -1,-1.5 z m 7.79368,-3.28426 c -1.66776,-3.47205 -1.65064,-3.64456 0.75782,-7.63403 l 2.46414,-4.08171 -0.64666,7.5 c -0.35567,4.125 -0.69668,7.56032 -0.75782,7.63404 -0.0611,0.0737 -0.879,-1.46452 -1.81748,-3.4183 z m 7.03911,-29.65635 c 0.84235,-16.312927 -7.30043,-32.502009 -21.2447,-42.23766 l -2.9119,-2.033045 10.9119,-2.074939 c 6.00155,-1.141216 16.10675,-2.850135 22.456,-3.797597 10.04136,-1.498415 11.92585,-1.53969 14.47674,-0.31708 3.29311,1.578346 5.06751,5.420655 4.16461,9.018084 -0.91392,3.641372 -26.44425,47.769667 -27.68544,47.853337 -0.275,0.0185 -0.35024,-2.86646 -0.16721,-6.4111 z M 92,86.940983 c 0,-0.582459 0.45,-0.780902 1,-0.440983 0.55,0.339919 1,0.816476 1,1.059017 C 94,87.801558 93.55,88 93,88 92.45,88 92,87.523442 92,86.940983 Z M 164.5,70 c 0.33992,-0.55 0.81648,-1 1.05902,-1 0.24254,0 0.44098,0.45 0.44098,1 0,0.55 -0.47656,1 -1.05902,1 -0.58246,0 -0.7809,-0.45 -0.44098,-1 z M 91.51608,39.410699 c 0.390327,-3.800884 1.535776,-12.059924 2.54544,-18.353422 2.16411,-13.4894442 3.792067,-16.4021974 9.43225,-16.8762526 3.52911,-0.2966203 4.26101,0.1589301 10.44304,6.4999996 3.65637,3.750437 9.2397,9.968976 12.4074,13.818976 l 5.75945,7 -8.30183,0.66229 c -4.56601,0.36426 -9.65597,1.089271 -11.31104,1.611137 -4.83962,1.526 -13.680189,6.243221 -17.837593,9.517923 l -3.846804,3.030048 z"
       id="path4532"
       inkscape:connector-curvature="0" />
    <path
       style="fill:#d9a600"
       d="m 93.503412,249.75 c -3.35496,-2.8943 -4.381855,-7.39302 -5.177574,-22.68245 l -0.647031,-12.43245 3.035855,2.16172 c 6.045821,4.30501 17.676428,9.13845 24.917308,10.35514 4.05241,0.68092 7.36803,1.58326 7.36803,2.0052 0,1.7053 -18.72506,20.2356 -21.71788,21.49198 -4.257929,1.78747 -4.727393,1.73321 -7.778708,-0.89914 z M 221.00378,208.43776 C 209.05005,205.90561 201.5,203.7206 201.5,202.7933 c 0,-0.29702 2.35666,-2.40286 5.23701,-4.67965 6.57978,-5.20102 12.62679,-12.79768 16.60764,-20.86365 1.69654,-3.4375 3.38627,-6.25 3.75497,-6.25 1.02896,0 3.49641,4.09663 9.97038,16.55347 6.94348,13.36024 7.65073,17.94784 3.29514,21.37395 -3.28133,2.58109 -5.0797,2.53561 -19.36136,-0.48966 z M 26.886648,139.92106 C 12.551595,132.88591 9,130.01991 9,125.48722 c 0,-5.02295 5.235883,-8.62918 22.466621,-15.47396 10.581207,-4.20331 10.552901,-4.21199 8.917718,2.73674 -2.099031,8.91986 -1.574902,22.67898 1.199937,31.5 0.896606,2.85025 -1.518515,2.13891 -14.697628,-4.32894 z M 230.94103,81.25 c -2.05921,-6.360475 -5.94258,-13.488887 -10.65366,-19.556179 -2.47959,-3.193398 -4.27766,-6.036867 -3.9957,-6.31882 0.28195,-0.281952 5.06544,-1.430107 10.62998,-2.551455 11.31727,-2.28062 16.21021,-1.901078 18.54961,1.438881 2.17852,3.110272 1.90479,6.061944 -1.11475,12.020817 C 241.76171,71.403911 233.13968,85 232.48718,85 c -0.18264,0 -0.87841,-1.6875 -1.54615,-3.75 z M 95.238331,16.913093 C 95.97962,6.5526038 99.52164,2.659187 106.59149,4.4336068 108.69896,4.962549 117,14.077295 117,15.862412 c 0,0.37555 -2.55804,1.277538 -5.68453,2.004418 -3.12648,0.726881 -8.1371,2.406247 -11.13469,3.731924 l -5.450164,2.410322 z"
       id="path4530"
       inkscape:connector-curvature="0" />
  </g>
</svg>
