<?xml version="1.0" encoding="UTF-8" standalone="no"?>
<!-- Generator: Adobe Illustrator 15.0.0, SVG Export Plug-In . SVG Version: 6.00 Build 0)  -->

<svg
   xmlns:osb="http://www.openswatchbook.org/uri/2009/osb"
   xmlns:dc="http://purl.org/dc/elements/1.1/"
   xmlns:cc="http://creativecommons.org/ns#"
   xmlns:rdf="http://www.w3.org/1999/02/22-rdf-syntax-ns#"
   xmlns:svg="http://www.w3.org/2000/svg"
   xmlns="http://www.w3.org/2000/svg"
   xmlns:xlink="http://www.w3.org/1999/xlink"
   xmlns:sodipodi="http://sodipodi.sourceforge.net/DTD/sodipodi-0.dtd"
   xmlns:inkscape="http://www.inkscape.org/namespaces/inkscape"
   version="1.1"
   x="0px"
   y="0px"
   width="580px"
   height="580px"
   viewBox="0 0 580 580"
   enable-background="new 0 0 580 580"
   xml:space="preserve"
   id="svg2"
   inkscape:version="0.48.4 r9939"
   sodipodi:docname="tree.svg"
   inkscape:export-filename="C:\Users\simon\git\xmas-preset\icons\png\tree.png"
   inkscape:export-xdpi="7.4369802"
   inkscape:export-ydpi="7.4369802"><metadata
   id="metadata23"><rdf:RDF><cc:Work
       rdf:about=""><dc:format>image/svg+xml</dc:format><dc:type
         rdf:resource="http://purl.org/dc/dcmitype/StillImage" /><dc:title></dc:title></cc:Work></rdf:RDF></metadata><defs
   id="defs21"><linearGradient
   inkscape:collect="always"
   id="linearGradient5725"><stop
     style="stop-color:#e1e1e1;stop-opacity:1;"
     offset="0"
     id="stop5727" /><stop
     style="stop-color:#e1e1e1;stop-opacity:0;"
     offset="1"
     id="stop5729" /></linearGradient><linearGradient
   id="linearGradient5713"
   osb:paint="solid"><stop
     style="stop-color:#e1e1e1;stop-opacity:1;"
     offset="0"
     id="stop5715" /></linearGradient><pattern
   inkscape:collect="always"
   xlink:href="#pattern5253"
   id="pattern5258"
   patternTransform="matrix(1.8791263,0,0,1.8791263,1.953125e-6,-1.1279297e-6)" /><pattern
   inkscape:collect="always"
   xlink:href="#pattern5246"
   id="pattern5253"
   patternTransform="matrix(1.8791263,0,0,1.8791263,-496.177,188.20378)" /><pattern
   inkscape:collect="always"
   xlink:href="#pattern5244"
   id="pattern5249"
   patternTransform="matrix(0.15650857,0,0,0.15650857,1.953125e-6,-1.1279297e-6)" /><pattern
   inkscape:collect="always"
   xlink:href="#pattern5223"
   id="pattern5244"
   patternTransform="matrix(0.15650857,0,0,0.15650857,-496.177,188.20378)" />
	

		
		
		
		
	<pattern
   patternUnits="userSpaceOnUse"
   width="410.44205"
   height="285.26203"
   patternTransform="translate(-70.173769,240.99381)"
   id="pattern5223"><g
     transform="translate(-8.9021958,-24.39422)"
     id="layer1"><path
       id="path1309"
       style="fill:#d00000;fill-opacity:1;fill-rule:evenodd;stroke:#000000;stroke-width:0.83349466px;stroke-linecap:butt;stroke-linejoin:miter;stroke-opacity:1"
       d="m 234.10295,28.783327 c -28.10056,7.733968 -56.90414,23.114414 -77.16658,38.006479 -20.26243,14.892057 -73.190777,52.416304 -85.274538,64.306944 -11.715979,11.52873 -25.555008,15.55018 -31.610801,29.75626 -2.335424,5.47857 15.83661,22.00519 19.397534,23.721 9.241286,4.45282 24.304529,-3.44276 31.177964,-3.91429 22.307191,-1.53031 45.167011,-4.49872 67.760351,10.79277 -4.18054,4.22051 2.45801,-0.32326 -6.08769,36.69347 -3.01352,13.05342 -9.59873,46.91908 -1.50714,53.3804 8.03941,6.41966 12.94944,-18.60581 20.93693,-14.77435 -0.004,0.006 -0.002,0.0211 -0.005,0.0264 -0.002,0.005 -0.004,0.0222 -0.005,0.0264 4.7e-4,0.004 -0.006,0.0233 -0.005,0.0264 0.003,0.003 0.0211,0.003 0.0249,0.005 0.0243,0.007 0.0777,0.004 0.12879,-0.002 0.015,0.007 0.0346,0.002 0.0497,0.01 0.0565,0.0271 0.1079,0.0591 0.16488,0.0866 l 0.0475,-0.12728 c 3.78138,-0.97727 33.26276,-13.96581 60.17617,-8.74298 15.17141,2.94415 39.36936,-5.30957 53.29004,-9.61521 22.07602,-6.82803 53.06775,-12.99841 72.72796,-13.35072 14.48306,-0.25953 27.58714,-8.45898 41.52062,-9.41484 8.22039,-0.56393 0.59821,-27.06599 0.4283,-29.86559 -0.81659,-13.45508 -17.56507,-34.13032 -26.19103,-52.50369 -8.62596,-18.37338 -23.08213,-41.697 -39.00385,-59.986157 -15.92034,-18.289939 -37.40028,-41.972174 -52.5239,-49.259355 -15.12361,-7.287181 -17.9532,-13.675443 -48.45111,-5.281661 z"
       inkscape:connector-curvature="0" /><path
       id="path5882"
       style="opacity:0.10112359;fill:#0e0000;fill-opacity:1;fill-rule:evenodd;stroke:none"
       d="m 166.95567,93.343683 c -18.23272,4.41659 -33.84758,62.691407 -56.31899,72.821827 -14.697321,6.62576 -54.749039,16.69269 -51.188115,18.4085 9.241286,4.45282 24.304529,-3.44276 31.177964,-3.91429 22.307191,-1.53031 45.167011,-4.49872 67.760351,10.79277 -4.18054,4.22051 2.45801,-0.32326 -6.08769,36.69347 -3.01352,13.05342 -9.59873,46.91908 -1.50714,53.3804 8.03941,6.41966 12.94944,-18.60581 20.93693,-14.77435 -0.004,0.006 -0.002,0.0211 -0.005,0.0264 -0.002,0.005 -0.004,0.0222 -0.005,0.0264 4.7e-4,0.004 -0.006,0.0233 -0.005,0.0264 0.003,0.003 0.0211,0.003 0.0249,0.005 0.0243,0.007 0.0777,0.004 0.12879,-0.002 0.015,0.007 0.0346,0.002 0.0497,0.01 0.0565,0.0271 0.1079,0.0591 0.16488,0.0866 l 0.0475,-0.12728 c 3.78138,-0.97727 33.26276,-13.96581 60.17617,-8.74298 15.17141,2.94415 39.36936,-5.30957 53.29004,-9.61521 22.07602,-6.82803 53.06775,-12.99841 72.72796,-13.35072 14.48306,-0.25953 27.58714,-8.45898 41.52062,-9.41484 8.22039,-0.56393 -51.08531,4.52064 -27.44964,-12.57577 10.48531,-7.58433 -104.98388,15.80767 -149.31404,-34.77677 -43.89537,-50.0883 -37.45534,-89.505577 -56.12656,-84.982777 z"
       inkscape:connector-curvature="0" /><path
       id="path5878"
       style="opacity:0.26966289;fill:#000000;fill-opacity:1;fill-rule:evenodd;stroke:#000000;stroke-width:0.83016068;stroke-linecap:butt;stroke-linejoin:miter;stroke-miterlimit:4;stroke-opacity:1;stroke-dasharray:none"
       d="m 41.923132,154.63221 c 3.550897,2.3529 27.397959,32.51694 30.215216,30.40575 0.340584,-3.33088 -2.440653,-4.64208 -4.39708,-5.02241 2.619616,-3.32925 3.113447,-6.81056 -1.432527,-7.10965 -5.040198,-0.88997 -10.542525,-1.51433 -5.132485,-6.93595 2.497843,-3.03871 -0.167946,-8.43506 -1.701721,-11.17993 -4.029518,-2.17638 -7.065984,-6.11435 -8.717627,-8.79126"
       inkscape:connector-curvature="0" /><path
       id="path5003"
       style="opacity:0.294045;fill:#000000;fill-opacity:1;fill-rule:evenodd;stroke:#000000;stroke-width:0.60142648px;stroke-linecap:butt;stroke-linejoin:miter;stroke-opacity:1"
       d="m 365.59735,219.58638 c -7.45124,-2.6426 -16.80117,-5.69478 -23.38958,-5.28735 -4.52499,-3.82248 -7.99822,0.88787 -11.91885,2.14156 -0.65797,-7.35971 -11.51071,3.11231 -16.29132,3.17249 -3.39452,1.94833 -1.05481,-5.80054 -7.13354,-2.85309 -7.55754,0.71399 -12.23241,1.23324 -17.83876,3.66049 -1.34666,8.01279 -13.44905,12.52661 -15.26046,3.7443 -6.59856,2.87141 -18.86884,8.44118 -18.94833,-0.64164 -10.56431,8.19396 -10.90033,15.59836 -21.21381,19.55298 0.9126,-7.09218 -22.37063,-10.90803 -25.54443,-3.46471 -6.38963,2.57308 1.32915,-9.32097 -7.90455,-6.05233 -10.40062,-3.02386 -4.34704,17.93464 -25.55362,9.36597 -11.8077,-0.37983 -5.2687,16.71929 -13.06117,23.88224 -2.0761,7.53231 -11.08359,-2.62404 -14.72934,-2.06009 0.84794,11.92658 3.40768,7.88228 0.71924,15.9966 -1.60415,10.16538 -3.75129,15.25548 7.43178,17.37239 3.62121,-4.90361 -0.18204,-2.829 0.62793,6.21747 6.45765,-1.87978 14.94635,-12.63999 14.07505,-1.58144 4.38202,-6.67329 18.25435,-10.15139 18.07994,-17.33913 7.02184,0.73709 14.90236,8.57944 20.82979,-0.95299 5.95076,-7.0412 14.50445,-10.30685 14.59427,-4.86854 7.23377,6.7565 7.95724,5.38728 15.478,3.66781 -1.93719,-8.71166 17.59935,-0.59858 7.28271,-9.27171 4.09757,-4.10343 15.18748,-6.50139 21.59622,-5.07542 5.66947,8.25419 22.94407,8.93721 25.63186,-1.74704 0.56398,-8.40429 13.68224,-11.27875 18.58724,-5.46823 8.52969,-7.4786 21.98421,3.38849 29.32409,-2.3442 -6.59758,-8.56295 9.32443,-14.15812 12.29788,-7.59298 5.84169,-3.13663 11.27804,-14.42284 17.66836,-6.34283 7.34987,-2.39523 16.32468,-5.72557 22.54222,-8.22182 4.66667,7.69315 16.74733,-0.2211 11.51054,-9.53228 -2.83483,-6.65069 9.30974,3.27444 6.00348,-5.16367 -3.76088,-9.07689 -9.04264,-21.69181 -15.51378,-21.2748 -8.8124,-2.20185 -14.03766,3.74492 -14.40344,12.16045 -0.11143,-6.14114 -10.52227,-0.15499 -15.9832,2.07193 l -2.99388,0.71227 -3.57688,-2.52294"
       inkscape:connector-curvature="0" /><path
       id="path1307"
       style="fill:#ffffff;fill-opacity:1;fill-rule:evenodd;stroke:#000000;stroke-width:0.60142648px;stroke-linecap:butt;stroke-linejoin:miter;stroke-opacity:1"
       d="m 370.52395,221.8307 c -7.45124,-2.6426 -14.35623,-3.01411 -20.94463,-2.60667 -4.52499,-3.82249 -9.89492,-2.56891 -13.81555,-1.31521 -0.65796,-7.35972 -9.61402,6.56907 -14.39462,6.62925 -3.39454,1.94834 -1.05481,-5.80052 -7.13355,-2.85309 -7.55754,0.71399 -16.31902,-3.97224 -21.92537,-1.54499 -1.34666,8.01279 -13.44905,12.52661 -15.26045,3.7443 -6.59857,2.87142 -14.78225,13.64667 -14.86172,4.56385 -12.38454,-0.5429 -17.69005,11.63327 -28.00354,15.58789 0.91261,-7.09217 -15.5809,-6.94295 -18.75471,0.50038 -6.38962,2.57308 -1.69916,-13.4386 -10.93286,-10.16996 -10.40061,-3.02386 -10.11666,17.69747 -22.52531,13.48359 -11.80769,-0.37983 -10.15859,11.35793 -17.95107,18.52087 -2.07609,7.53232 -6.19368,2.73734 -9.83944,3.30129 5.99914,8.51379 -18.39263,6.74041 -11.15151,19.87036 -1.60415,10.16538 0.84851,17.47186 12.03157,19.58876 3.62121,-4.9036 7.08893,-8.91913 7.8989,0.12733 6.45764,-1.87977 14.94635,-12.63998 14.07504,-1.58143 4.38203,-6.67329 18.25435,-10.15139 18.07994,-17.33913 7.02184,0.73709 14.90236,8.57943 20.82979,-0.953 5.95076,-7.04119 6.93352,-1.29602 7.02333,4.14228 7.23377,6.75651 15.52819,-3.62354 23.04894,-5.343 -1.93719,-8.71165 17.59935,-0.59858 7.28272,-9.27172 4.09756,-4.10342 15.18748,-6.50139 21.59622,-5.07542 5.62317,5.3341 22.94406,8.93722 25.63186,-1.74704 0.56398,-8.40429 13.68223,-11.27874 18.58724,-5.46823 8.52968,-7.47859 21.9842,3.3885 29.32408,-2.34419 -6.59758,-8.56296 9.32444,-14.15812 12.29788,-7.59298 5.84169,-3.13663 11.27804,-14.42284 17.66837,-6.34283 7.34985,-2.39523 16.32467,-5.72558 22.54222,-8.22183 4.66666,7.69315 16.74733,-0.2211 11.51053,-9.53227 -2.83483,-6.65069 9.30974,3.27444 6.00349,-5.16367 0.0738,-9.65646 -3.56311,-24.59965 -15.51378,-21.2748 -8.81241,-2.20185 -14.03766,3.74491 -14.40345,12.16044 -0.11143,-6.14113 -14.02552,-3.92353 -19.48644,-1.69661 l -1.78895,0.9461 -1.27857,1.01177"
       inkscape:connector-curvature="0" /><path
       id="path3126"
       style="fill:none;stroke:#000000;stroke-width:0.83349466px;stroke-linecap:butt;stroke-linejoin:miter;stroke-opacity:1"
       d="m 155.67981,210.88831 c 3.14012,-40.84748 23.78547,-59.45023 20.15126,-92.12062 -2.14808,-19.310467 -19.537,-4.67273 -13.86936,13.44173"
       inkscape:connector-curvature="0" /><path
       id="path3249"
       style="opacity:0.11235956;fill:#000000;fill-opacity:1;fill-rule:evenodd;stroke:none"
       d="m 163.97802,266.61875 c -2.07609,7.53231 -6.19368,2.73733 -9.83944,3.30128 5.99914,8.51379 -18.39263,6.74042 -11.15152,19.87037 -1.60414,10.16538 0.84852,17.47185 12.03159,19.58875 3.6212,-4.9036 7.08892,-8.91913 7.89889,0.12734 6.45764,-1.87978 14.94635,-12.63999 14.07505,-1.58144 4.38202,-6.67328 18.25434,-10.15139 18.07993,-17.33912 7.02184,0.73708 14.56587,7.34967 20.4933,-2.18275 5.95076,-7.0412 7.27,-0.0663 7.35982,5.37202 7.23377,6.75652 15.52819,-3.62353 23.04895,-5.34299 -1.9372,-8.71166 8.86645,-1.54524 7.2827,-9.27172 -1.03721,-5.06015 33.64493,-3.56205 28.65668,-8.51045 -14.90587,-14.78677 -38.19112,7.49212 -41.55999,6.0701 -3.36887,-1.42201 -7.09125,-0.55957 -2.38487,-2.71925 4.70639,-2.15967 -6.74248,1.39249 -16.27743,-1.99436 -9.53496,-3.38685 -16.51439,0.89493 -17.1513,9.34281 -7.18176,-4.46668 -7.69633,0.60685 -18.88509,3.71804 7.12945,-10.42281 -12.5996,-2.76884 -12.5996,-2.76884 0,0 3.43729,-11.42797 -2.73938,-9.91964 3.32068,-5.96418 -0.36489,-7.80159 -0.36489,-7.80159 0,0 1.81907,-5.12151 -5.9734,2.04144 z"
       inkscape:connector-curvature="0" /><path
       id="path2251"
       style="fill:#ffffff;fill-opacity:1;fill-rule:evenodd;stroke:#000000;stroke-width:0.81360233;stroke-linecap:butt;stroke-linejoin:miter;stroke-miterlimit:4;stroke-opacity:1;stroke-dasharray:none"
       d="m 46.944746,146.2449 c -1.301678,-2.31828 -5.35751,-2.9566 -5.879409,-4.92258 0.90649,-2.28341 -2.659108,-0.62717 -3.361697,-1.88241 -4.194454,3.43361 -9.9845,4.91989 -13.092707,9.64254 1.652786,-0.36247 1.648832,-2.77858 -0.157056,-0.99615 -3.401098,1.68966 -6.688157,4.65771 -5.409253,8.89282 0.309772,2.17325 -2.425553,4.04333 0.913564,4.55805 -0.435409,3.47934 -5.654943,3.33284 -5.658053,6.4037 1.15534,3.3495 0.647111,6.84015 -2.100735,9.18954 -2.7180283,2.54178 -1.598648,6.28312 -1.499585,9.37085 -1.3669853,2.06531 -2.1364273,3.98573 -0.334716,5.95301 0.381454,3.5482 3.326995,5.89755 3.348942,9.5893 1.240053,1.93493 3.726708,1.8152 4.99685,4.00177 3.710475,0.3154 3.982719,5.49648 7.517208,6.2151 3.036183,0.99028 6.628635,0.30362 9.364415,1.02979 2.243733,1.81902 4.819206,3.08691 7.64389,3.59772 3.550896,2.25998 4.757769,-3.36478 6.906731,-5.17595 0.111428,-2.83195 2.146008,-3.05232 3.508535,-0.6677 3.101,2.10235 6.314017,-1.51811 8.537176,-3.43384 2.173489,-2.36905 4.611889,-4.42 7.032089,-6.49716 3.435924,-3.87856 4.655818,-9.42971 4.463567,-14.53502 0.340584,-3.19933 -2.634125,-3.37634 -4.590549,-3.74166 0.884588,-2.68233 3.113445,-6.54159 -1.432528,-6.82885 -2.606958,-0.6809 -8.517294,-3.59356 -5.132485,-6.66202 2.497843,-2.91871 -0.939756,-6.84771 -2.473531,-9.48419 -2.656218,-2.11406 -4.199508,-5.05895 -5.85115,-7.63014 -3.197679,-0.50952 -6.194337,-2.45275 -7.009506,-5.8451 -0.853644,-2.69404 -0.236398,-0.69903 0.03297,0.61246"
       inkscape:connector-curvature="0" /><path
       id="path4128"
       style="opacity:0.0955056;fill:#000000;fill-opacity:1;fill-rule:evenodd;stroke:none"
       d="m 20.404837,181.84614 c -1.601293,-1.9684 4.721412,-1.04116 4.199512,-3.00714 0.90649,-2.28339 -0.178267,-2.37846 -0.880857,-3.63371 -4.194453,3.43361 -3.206637,-4.70088 -6.314844,0.0218 1.652786,-0.36246 1.381011,-6.33357 -0.424877,-4.55114 -3.401098,1.68965 -2.680526,-5.80591 -2.683636,-2.73505 1.15534,3.3495 0.647111,6.84015 -2.100735,9.18954 -2.7180283,2.54178 -1.598648,6.28312 -1.499585,9.37085 -1.3669853,2.06531 -2.1364273,3.98573 -0.334716,5.95301 0.381454,3.5482 3.326995,5.89755 3.348942,9.5893 1.240053,1.93493 3.726708,1.8152 4.99685,4.00177 3.710475,0.3154 3.982719,5.49648 7.517208,6.2151 3.036183,0.99028 6.628635,0.30362 9.364415,1.02979 2.243733,1.81902 4.819206,3.08691 7.64389,3.59772 3.550896,2.25998 4.757769,-3.36478 6.906731,-5.17595 0.111428,-2.83195 2.146008,-3.05232 3.508535,-0.6677 3.101,2.10235 6.314017,-1.51811 8.537176,-3.43384 2.173489,-2.36905 -8.345955,0.35931 -5.925755,-1.71784 3.43592,-3.87857 -7.75248,5.41378 -7.944735,0.30847 0.340581,-3.19932 -12.370379,4.07056 -9.678506,-1.55391 0.884591,-2.68233 1.535909,-0.7479 -3.010064,-1.03517 -2.606958,-0.6809 -9.803527,-5.4936 -6.418718,-8.56206 2.497844,-2.91871 -1.342064,0.45638 -2.875839,-2.18009 -2.656219,-2.11406 -0.95965,-0.95001 -2.611292,-3.52118 -3.197679,-0.50952 -1.791784,-1.81661 -2.606953,-5.20895 -1.383361,3.98006 -0.981514,-3.60508 -0.712147,-2.29359 z"
       inkscape:connector-curvature="0" /><path
       id="path5880"
       style="fill:#000000;fill-opacity:0.22346371;fill-rule:evenodd;stroke:none"
       d="m 157.67035,192.3615 c 0,0 13.14456,-33.51164 16.30292,-46.8815 2.955,-12.50888 2.57264,-31.60315 -1.8531,-35.13721 -4.42575,-3.53406 -10.24707,2.57829 -10.86062,9.81603 -0.61354,7.23773 -1.12742,9.06164 1.8435,22.86746 1.34679,6.25851 0.67415,21.09312 -1.15695,28.09458 -1.8311,7.00146 -5.82667,22.94607 -4.27575,21.24064 z"
       inkscape:connector-curvature="0" /></g></pattern><pattern
   patternUnits="userSpaceOnUse"
   width="64.237701"
   height="44.645954"
   patternTransform="translate(-496.177,188.20378)"
   id="pattern5246"><rect
     id="rect5236"
     y="0"
     x="0"
     height="44.645954"
     width="64.237701"
     style="fill:url(#pattern5249);stroke:none" /></pattern><pattern
   patternUnits="userSpaceOnUse"
   width="120.71075"
   height="83.895386"
   patternTransform="translate(-496.177,188.20378)"
   id="pattern5255"><rect
     id="rect5251"
     y="0"
     x="0"
     height="83.895386"
     width="120.71075"
     style="fill:url(#pattern5258);stroke:none" /></pattern><linearGradient
   gradientTransform="scale(1.136498,0.879896)"
   gradientUnits="userSpaceOnUse"
   id="linearGradient2162"
   spreadMethod="reflect"
   x1="340.0267"
   x2="261.70718"
   xlink:href="#linearGradient2163"
   y1="643.62378"
   y2="643.62378" /><linearGradient
   id="linearGradient2163"><stop
     id="stop2164"
     offset="0.0000000"
     style="stop-color:#806514;stop-opacity:1.0000000;" /><stop
     id="stop2166"
     offset="0.50000000"
     style="stop-color:#c29a58;stop-opacity:1.0000000;" /><stop
     id="stop2165"
     offset="1.0000000"
     style="stop-color:#806514;stop-opacity:1.0000000;" /></linearGradient><linearGradient
   gradientTransform="scale(1.434893,0.696916)"
   gradientUnits="userSpaceOnUse"
   id="linearGradient10"
   x1="235.35643"
   x2="235.35643"
   xlink:href="#linearGradient1530"
   y1="718.3501"
   y2="424.73553" /><linearGradient
   id="linearGradient1530"><stop
     id="stop1531"
     offset="0.0000000"
     style="stop-color:#285925;stop-opacity:1.0000000;" /><stop
     id="stop1532"
     offset="1.0000000"
     style="stop-color:#5ce451;stop-opacity:1.0000000;" /></linearGradient><linearGradient
   gradientTransform="scale(1.434893,0.696916)"
   gradientUnits="userSpaceOnUse"
   id="linearGradient11"
   x1="235.49731"
   x2="235.49731"
   xlink:href="#linearGradient1530"
   y1="532.65594"
   y2="299.71429" /><linearGradient
   id="linearGradient3053"><stop
     id="stop3055"
     offset="0.0000000"
     style="stop-color:#285925;stop-opacity:1.0000000;" /><stop
     id="stop3057"
     offset="1.0000000"
     style="stop-color:#5ce451;stop-opacity:1.0000000;" /></linearGradient><linearGradient
   gradientTransform="scale(1.434893,0.696916)"
   gradientUnits="userSpaceOnUse"
   id="linearGradient1533"
   x1="235.62045"
   x2="235.62045"
   xlink:href="#linearGradient1530"
   y1="372.63223"
   y2="192.71719" /><linearGradient
   id="linearGradient3060"><stop
     id="stop3062"
     offset="0.0000000"
     style="stop-color:#285925;stop-opacity:1.0000000;" /><stop
     id="stop3064"
     offset="1.0000000"
     style="stop-color:#5ce451;stop-opacity:1.0000000;" /></linearGradient><radialGradient
   cx="316.33749"
   cy="92.979301"
   fx="316.33749"
   fy="92.979301"
   gradientTransform="scale(0.934502,1.070088)"
   gradientUnits="userSpaceOnUse"
   id="radialGradient3428"
   r="50.264717"
   xlink:href="#linearGradient3429" /><linearGradient
   id="linearGradient3429"><stop
     id="stop3430"
     offset="0.0000000"
     style="stop-color:#ffa900;stop-opacity:1.0000000;" /><stop
     id="stop3431"
     offset="1.0000000"
     style="stop-color:#ffff00;stop-opacity:1.0000000;" /></linearGradient><radialGradient
   cx="91.890312"
   cy="364.99167"
   fx="92.031456"
   fy="364.99167"
   gradientTransform="scale(0.972826,1.027933)"
   gradientUnits="userSpaceOnUse"
   id="radialGradient12"
   r="17.360537"
   xlink:href="#linearGradient2790" /><linearGradient
   id="linearGradient2790"><stop
     id="stop2791"
     offset="0.0000000"
     style="stop-color:#f2867d;stop-opacity:1.0000000;" /><stop
     id="stop2793"
     offset="1.0000000"
     style="stop-color:#ff000a;stop-opacity:1.0000000;" /></linearGradient><radialGradient
   cx="91.890312"
   cy="364.99167"
   fx="92.031456"
   fy="364.99167"
   gradientTransform="scale(0.972826,1.027933)"
   gradientUnits="userSpaceOnUse"
   id="radialGradient13"
   r="17.360537"
   xlink:href="#linearGradient2790" /><linearGradient
   id="linearGradient3075"><stop
     id="stop3077"
     offset="0.0000000"
     style="stop-color:#f2867d;stop-opacity:1.0000000;" /><stop
     id="stop3079"
     offset="1.0000000"
     style="stop-color:#ff000a;stop-opacity:1.0000000;" /></linearGradient><radialGradient
   cx="91.890312"
   cy="364.99167"
   fx="92.031456"
   fy="364.99167"
   gradientTransform="scale(0.972826,1.027933)"
   gradientUnits="userSpaceOnUse"
   id="radialGradient14"
   r="17.360537"
   xlink:href="#linearGradient2790" /><linearGradient
   id="linearGradient3082"><stop
     id="stop3084"
     offset="0.0000000"
     style="stop-color:#f2867d;stop-opacity:1.0000000;" /><stop
     id="stop3086"
     offset="1.0000000"
     style="stop-color:#ff000a;stop-opacity:1.0000000;" /></linearGradient><radialGradient
   cx="91.890312"
   cy="364.99167"
   fx="92.031456"
   fy="364.99167"
   gradientTransform="scale(0.972826,1.027933)"
   gradientUnits="userSpaceOnUse"
   id="radialGradient15"
   r="17.360537"
   xlink:href="#linearGradient2790" /><linearGradient
   id="linearGradient3089"><stop
     id="stop3091"
     offset="0.0000000"
     style="stop-color:#f2867d;stop-opacity:1.0000000;" /><stop
     id="stop3093"
     offset="1.0000000"
     style="stop-color:#ff000a;stop-opacity:1.0000000;" /></linearGradient><radialGradient
   cx="91.890312"
   cy="364.99167"
   fx="92.031456"
   fy="364.99167"
   gradientTransform="scale(0.972826,1.027933)"
   gradientUnits="userSpaceOnUse"
   id="radialGradient16"
   r="17.360537"
   xlink:href="#linearGradient2790" /><linearGradient
   id="linearGradient3096"><stop
     id="stop3098"
     offset="0.0000000"
     style="stop-color:#f2867d;stop-opacity:1.0000000;" /><stop
     id="stop3100"
     offset="1.0000000"
     style="stop-color:#ff000a;stop-opacity:1.0000000;" /></linearGradient><radialGradient
   cx="91.890312"
   cy="364.99167"
   fx="92.031456"
   fy="364.99167"
   gradientTransform="scale(0.972826,1.027933)"
   gradientUnits="userSpaceOnUse"
   id="radialGradient17"
   r="17.360537"
   xlink:href="#linearGradient2790" /><linearGradient
   id="linearGradient3103"><stop
     id="stop3105"
     offset="0.0000000"
     style="stop-color:#f2867d;stop-opacity:1.0000000;" /><stop
     id="stop3107"
     offset="1.0000000"
     style="stop-color:#ff000a;stop-opacity:1.0000000;" /></linearGradient><radialGradient
   cx="91.890312"
   cy="364.99167"
   fx="92.031456"
   fy="364.99167"
   gradientTransform="scale(0.972826,1.027933)"
   gradientUnits="userSpaceOnUse"
   id="radialGradient18"
   r="17.360537"
   xlink:href="#linearGradient2790" /><linearGradient
   id="linearGradient3110"><stop
     id="stop3112"
     offset="0.0000000"
     style="stop-color:#f2867d;stop-opacity:1.0000000;" /><stop
     id="stop3114"
     offset="1.0000000"
     style="stop-color:#ff000a;stop-opacity:1.0000000;" /></linearGradient><radialGradient
   cx="91.890312"
   cy="364.99167"
   fx="92.031456"
   fy="364.99167"
   gradientTransform="scale(0.972826,1.027933)"
   gradientUnits="userSpaceOnUse"
   id="radialGradient19"
   r="17.360537"
   xlink:href="#linearGradient2790" /><linearGradient
   id="linearGradient3117"><stop
     id="stop3119"
     offset="0.0000000"
     style="stop-color:#f2867d;stop-opacity:1.0000000;" /><stop
     id="stop3121"
     offset="1.0000000"
     style="stop-color:#ff000a;stop-opacity:1.0000000;" /></linearGradient><radialGradient
   cx="91.890312"
   cy="364.99167"
   fx="92.031456"
   fy="364.99167"
   gradientTransform="scale(0.972826,1.027933)"
   gradientUnits="userSpaceOnUse"
   id="radialGradient20"
   r="17.360537"
   xlink:href="#linearGradient2790" /><linearGradient
   id="linearGradient3124"><stop
     id="stop3126"
     offset="0.0000000"
     style="stop-color:#f2867d;stop-opacity:1.0000000;" /><stop
     id="stop3128"
     offset="1.0000000"
     style="stop-color:#ff000a;stop-opacity:1.0000000;" /></linearGradient><radialGradient
   cx="91.890312"
   cy="364.99167"
   fx="92.031456"
   fy="364.99167"
   gradientTransform="scale(0.972826,1.027933)"
   gradientUnits="userSpaceOnUse"
   id="radialGradient21"
   r="17.360537"
   xlink:href="#linearGradient2790" /><linearGradient
   id="linearGradient3131"><stop
     id="stop3133"
     offset="0.0000000"
     style="stop-color:#f2867d;stop-opacity:1.0000000;" /><stop
     id="stop3135"
     offset="1.0000000"
     style="stop-color:#ff000a;stop-opacity:1.0000000;" /></linearGradient><radialGradient
   cx="91.890312"
   cy="364.99167"
   fx="92.031456"
   fy="364.99167"
   gradientTransform="scale(0.972826,1.027933)"
   gradientUnits="userSpaceOnUse"
   id="radialGradient22"
   r="17.360537"
   xlink:href="#linearGradient2790" /><linearGradient
   id="linearGradient3138"><stop
     id="stop3140"
     offset="0.0000000"
     style="stop-color:#f2867d;stop-opacity:1.0000000;" /><stop
     id="stop3142"
     offset="1.0000000"
     style="stop-color:#ff000a;stop-opacity:1.0000000;" /></linearGradient><radialGradient
   cx="91.890312"
   cy="364.99167"
   fx="92.031456"
   fy="364.99167"
   gradientTransform="scale(0.972826,1.027933)"
   gradientUnits="userSpaceOnUse"
   id="radialGradient2789"
   r="17.360537"
   xlink:href="#linearGradient2790" /><linearGradient
   id="linearGradient3145"><stop
     id="stop3147"
     offset="0.0000000"
     style="stop-color:#f2867d;stop-opacity:1.0000000;" /><stop
     id="stop3149"
     offset="1.0000000"
     style="stop-color:#ff000a;stop-opacity:1.0000000;" /></linearGradient><linearGradient
   gradientTransform="matrix(1.1469938,0,0,1.1469938,124.95198,182.25356)"
   gradientUnits="userSpaceOnUse"
   xlink:href="#linearGradient3195"
   id="linearGradient5508"
   y2="-2.219666"
   x2="203.875"
   y1="-20.469666"
   x1="194.75" /><linearGradient
   id="linearGradient3195"><stop
     id="stop3197"
     offset="0"
     style="stop-color:#ffffff;stop-opacity:1" /><stop
     id="stop3199"
     offset="1"
     style="stop-color:#ffffff;stop-opacity:0" /></linearGradient><linearGradient
   gradientTransform="matrix(1.1469938,0,0,1.1469938,124.95198,182.25356)"
   gradientUnits="userSpaceOnUse"
   xlink:href="#linearGradient3195"
   id="linearGradient5510"
   y2="-1.703125"
   x2="198.3125"
   y1="-16.28125"
   x1="186.53125" /><linearGradient
   id="linearGradient3271"><stop
     id="stop3273"
     offset="0"
     style="stop-color:#ffffff;stop-opacity:1" /><stop
     id="stop3275"
     offset="1"
     style="stop-color:#ffffff;stop-opacity:0" /></linearGradient><linearGradient
   inkscape:collect="always"
   xlink:href="#linearGradient3791"
   id="linearGradient3797"
   x1="375.47369"
   y1="205.14513"
   x2="375.47369"
   y2="124.99901"
   gradientUnits="userSpaceOnUse"
   gradientTransform="matrix(1.9186222,0,0,1.8942647,-545.81805,-28.83177)" /><linearGradient
   inkscape:collect="always"
   id="linearGradient3791"><stop
     style="stop-color:#000000;stop-opacity:1;"
     offset="0"
     id="stop3793" /><stop
     style="stop-color:#000000;stop-opacity:0;"
     offset="1"
     id="stop3795" /></linearGradient><linearGradient
   inkscape:collect="always"
   xlink:href="#linearGradient3781"
   id="linearGradient3787"
   x1="375.47369"
   y1="122.45143"
   x2="375.47369"
   y2="76.185806"
   gradientUnits="userSpaceOnUse"
   gradientTransform="matrix(1.9186222,0,0,1.8942647,-545.81805,-28.83177)" /><linearGradient
   inkscape:collect="always"
   id="linearGradient3781"><stop
     style="stop-color:#000000;stop-opacity:1;"
     offset="0"
     id="stop3783" /><stop
     style="stop-color:#000000;stop-opacity:0;"
     offset="1"
     id="stop3785" /></linearGradient><linearGradient
   inkscape:collect="always"
   xlink:href="#linearGradient3865"
   id="linearGradient3881"
   x1="332.01562"
   y1="257.96771"
   x2="374.6456"
   y2="259.93646"
   gradientUnits="userSpaceOnUse"
   gradientTransform="matrix(1.9186222,0,0,1.8942647,-545.81805,-28.83177)" /><linearGradient
   inkscape:collect="always"
   id="linearGradient3865"><stop
     style="stop-color:#000000;stop-opacity:1;"
     offset="0"
     id="stop3867" /><stop
     style="stop-color:#000000;stop-opacity:0;"
     offset="1"
     id="stop3869" /></linearGradient><linearGradient
   inkscape:collect="always"
   xlink:href="#linearGradient3865"
   id="linearGradient5676"
   gradientUnits="userSpaceOnUse"
   gradientTransform="matrix(1.9186222,0,0,1.8942647,-429.26181,19.474217)"
   x1="332.01562"
   y1="257.96771"
   x2="374.6456"
   y2="259.93646" /><linearGradient
   inkscape:collect="always"
   xlink:href="#linearGradient3781"
   id="linearGradient5678"
   gradientUnits="userSpaceOnUse"
   gradientTransform="matrix(1.9186222,0,0,1.8942647,-431.03802,19.474217)"
   x1="375.47369"
   y1="122.45143"
   x2="375.47369"
   y2="76.185806" /><linearGradient
   inkscape:collect="always"
   xlink:href="#linearGradient3791"
   id="linearGradient5680"
   gradientUnits="userSpaceOnUse"
   gradientTransform="matrix(1.9186222,0,0,1.8942647,-432.18271,19.474217)"
   x1="375.47369"
   y1="205.14513"
   x2="375.47369"
   y2="124.99901" /><linearGradient
   inkscape:collect="always"
   xlink:href="#linearGradient3195"
   id="linearGradient5682"
   gradientUnits="userSpaceOnUse"
   gradientTransform="matrix(1.1469938,0,0,1.1469938,124.95198,182.25356)"
   x1="194.75"
   y1="-20.469666"
   x2="203.875"
   y2="-2.219666" /><linearGradient
   inkscape:collect="always"
   xlink:href="#linearGradient3195"
   id="linearGradient5684"
   gradientUnits="userSpaceOnUse"
   gradientTransform="matrix(1.1469938,0,0,1.1469938,124.95198,182.25356)"
   x1="186.53125"
   y1="-16.28125"
   x2="198.3125"
   y2="-1.703125" /><linearGradient
   inkscape:collect="always"
   xlink:href="#linearGradient3865"
   id="linearGradient5700"
   gradientUnits="userSpaceOnUse"
   gradientTransform="matrix(1.9186222,0,0,1.8942647,-429.26181,19.474217)"
   x1="332.01562"
   y1="257.96771"
   x2="374.6456"
   y2="259.93646" /><linearGradient
   inkscape:collect="always"
   xlink:href="#linearGradient3781"
   id="linearGradient5702"
   gradientUnits="userSpaceOnUse"
   gradientTransform="matrix(1.9186222,0,0,1.8942647,-431.03802,19.474217)"
   x1="375.47369"
   y1="122.45143"
   x2="375.47369"
   y2="76.185806" /><linearGradient
   inkscape:collect="always"
   xlink:href="#linearGradient3791"
   id="linearGradient5704"
   gradientUnits="userSpaceOnUse"
   gradientTransform="matrix(1.9186222,0,0,1.8942647,-432.18271,19.474217)"
   x1="375.47369"
   y1="205.14513"
   x2="375.47369"
   y2="124.99901" /><linearGradient
   inkscape:collect="always"
   xlink:href="#linearGradient3195"
   id="linearGradient5706"
   gradientUnits="userSpaceOnUse"
   gradientTransform="matrix(1.1469938,0,0,1.1469938,124.95198,182.25356)"
   x1="194.75"
   y1="-20.469666"
   x2="203.875"
   y2="-2.219666" /><linearGradient
   inkscape:collect="always"
   xlink:href="#linearGradient3195"
   id="linearGradient5708"
   gradientUnits="userSpaceOnUse"
   gradientTransform="matrix(1.1469938,0,0,1.1469938,124.95198,182.25356)"
   x1="186.53125"
   y1="-16.28125"
   x2="198.3125"
   y2="-1.703125" /><radialGradient
   inkscape:collect="always"
   xlink:href="#linearGradient5725"
   id="radialGradient5731"
   cx="289.9265"
   cy="290.43022"
   fx="289.9265"
   fy="290.43022"
   r="289.9265"
   gradientTransform="matrix(1,0,0,1.0017359,0,-0.50415218)"
   gradientUnits="userSpaceOnUse" /></defs><sodipodi:namedview
   pagecolor="#ffffff"
   bordercolor="#666666"
   borderopacity="1"
   objecttolerance="10"
   gridtolerance="10"
   guidetolerance="10"
   inkscape:pageopacity="0"
   inkscape:pageshadow="2"
   inkscape:window-width="1920"
   inkscape:window-height="1147"
   id="namedview19"
   showgrid="false"
   inkscape:zoom="1.16"
   inkscape:cx="-48.117001"
   inkscape:cy="290"
   inkscape:window-x="-8"
   inkscape:window-y="-8"
   inkscape:window-maximized="1"
   inkscape:current-layer="svg2" />
<g
   id="Layer_2"
   style="fill:#f0f0ec;fill-opacity:1"
   inkscape:export-filename="C:\Users\simon\git\xmas-preset\icons\png\Layer_2.png"
   inkscape:export-xdpi="7.4369802"
   inkscape:export-ydpi="7.4369802">
	<g
   id="g1327"
   style="fill:#f0f0ec;fill-opacity:1">
		<path
   id="path1329"
   fill="#111111"
   stroke="#EEEEEE"
   stroke-width="3.408"
   d="M66.275,1.768    c-41.335,0-64.571,21.371-64.571,65.036v450.123c0,40.844,20.895,62.229,62.192,62.229H515.92    c41.307,0,62.229-20.315,62.229-62.229V66.804c0-42.601-20.923-65.036-63.521-65.036C514.624,1.768,66.133,1.625,66.275,1.768z"
   style="fill:#f0f0ec;fill-opacity:1" />
	</g>
</g>
<g
   id="Layer_3"
   inkscape:export-filename="C:\Users\simon\git\xmas-preset\icons\png\Layer_2.png"
   inkscape:export-xdpi="7.4369802"
   inkscape:export-ydpi="7.4369802">
</g>

<g
   id="g5686"
   transform="translate(-5e-6,10.430222)"
   inkscape:export-filename="C:\Users\simon\git\xmas-preset\icons\png\Layer_2.png"
   inkscape:export-xdpi="7.4369802"
   inkscape:export-ydpi="7.4369802"><path
     sodipodi:nodetypes="ccccc"
     inkscape:connector-curvature="0"
     id="path3007"
     d="m 249.03109,423.13019 -14.29971,77.25049 c 34.57072,13.43071 71.24146,14.19107 110.39024,0 l -8.49259,-77.25049 c -28.04786,-15.00621 -57.01094,-18.08494 -87.59794,0 z"
     style="fill:#8f5902;fill-opacity:1;stroke:none" /><path
     style="fill:url(#linearGradient5700);fill-opacity:1;stroke:none"
     d="m 249.03109,423.13019 -14.29971,77.25049 c 34.57072,13.43071 71.24146,14.19107 110.39024,0 l -8.49259,-77.25049 c -28.04786,-15.00621 -57.01094,-18.08494 -87.59794,0 z"
     id="path3873"
     inkscape:connector-curvature="0"
     sodipodi:nodetypes="ccccc" /><path
     style="fill:none;stroke:#5a3700;stroke-width:1.90640461px;stroke-linecap:butt;stroke-linejoin:miter;stroke-opacity:1"
     d="m 249.03109,423.13019 -14.29971,77.25049 c 34.57072,13.43071 71.24146,14.19107 110.39024,0 l -8.49259,-77.25049 c -28.04786,-15.00621 -57.01094,-18.08494 -87.59794,0 z"
     id="path4353"
     inkscape:connector-curvature="0"
     sodipodi:nodetypes="ccccc" /><path
     sodipodi:nodetypes="ccccccccccccc"
     inkscape:connector-curvature="0"
     id="path3003"
     d="M 288.57746,82.961677 C 259.99974,129.5697 232.05601,177.7185 194.41509,202.30035 c 8.02125,13.13747 27.43659,8.69763 46.67648,4.52849 -32.18777,60.62191 -63.76441,89.86975 -95.2416,114.01106 22.44955,16.42308 46.80032,15.64424 71.49865,11.72076 -25.59533,45.37887 -63.30866,80.50277 -103.8754,113.21191 45.68209,34.54366 150.51508,3.69902 175.33725,-33.69969 23.20333,37.10118 131.25709,68.30178 177.56932,33.69969 -42.82003,-29.81372 -79.91287,-66.45091 -108.73194,-112.94554 25.99514,3.14537 51.93266,5.72157 75.81556,-11.98713 -39.88938,-23.69601 -72.42827,-63.61394 -100.09812,-114.27745 18.75921,5.45226 36.42247,7.86838 48.83495,-4.2621 C 339.72939,174.65199 316.05716,126.7564 288.57746,82.961677 z"
     style="fill:#4e9a06;fill-opacity:1;stroke:none" /><path
     sodipodi:nodetypes="ccccccc"
     inkscape:connector-curvature="0"
     id="path3011"
     d="m 289.73573,82.291937 c -27.12659,43.668493 -50.65868,90.468343 -94.24623,119.796843 13.79,15.05761 30.54965,5.19368 46.16921,4.89736 17.76737,-5.76349 33.99257,-17.23677 47.69544,-38.0487 10.09255,18.43582 25.90526,30.65936 46.16921,38.0487 16.28005,5.84913 32.56009,6.86779 48.84014,-5.27409 -44.67038,-26.84556 -65.80391,-76.92919 -94.62777,-119.420113 z"
     style="fill:url(#linearGradient5702);fill-opacity:1;stroke:none" /><path
     sodipodi:nodetypes="ccccccccc"
     inkscape:connector-curvature="0"
     id="path3789"
     d="m 241.65871,205.85596 c -24.57134,47.68386 -56.57457,86.93058 -95.39092,114.52276 31.30332,20.9285 49.04071,14.64825 70.97085,12.05504 31.04792,-6.80512 50.8063,-30.83624 70.97082,-54.24763 19.26247,21.01831 35.41568,44.14709 70.20772,54.62435 27.17875,4.65839 53.04878,3.88994 75.16803,-12.43176 -41.45054,-26.1038 -74.55044,-63.98311 -99.20654,-113.76931 -16.87363,-6.05553 -32.84946,-15.74096 -46.16921,-36.16508 -15.6441,20.03734 -30.90664,29.40786 -46.55075,35.41163 z"
     style="fill:url(#linearGradient5704);fill-opacity:1;stroke:none" /><g
     transform="translate(-606.51948,-45.984602)"
     id="layer1-4"><g
       transform="translate(8.1445734e-8,5.6568544)"
       id="g5451"><g
         transform="matrix(0.51931862,0,0,0.52673469,710.22752,19.393793)"
         id="g5259"><path
           inkscape:connector-curvature="0"
           d="m 205.76807,-39.623009 12.11692,36.3602074 38.32495,0.2879598 -30.83628,22.7598008 11.5692,36.538176 -31.17479,-22.293876 -31.1748,22.293875 11.5692,-36.538175 -30.83628,-22.7598035 38.32495,-0.287957 12.11693,-36.3602075 z"
           transform="matrix(1.0219297,0,0,1.0219297,148.30179,171.9432)"
           style="fill:#ffd700;fill-opacity:1;stroke:none"
           id="path3597" /><path
           inkscape:connector-curvature="0"
           d="m 358.58028,137.30575 c -3.53707,10.62146 -7.07262,21.24345 -10.6097,31.86491 -0.0419,0.12867 -0.11294,0.24491 -0.17922,0.35845 l 11.00398,12.00759 0,-43.58577 c -0.0718,-0.21502 -0.14325,-0.43016 -0.21506,-0.64518 z"
           style="fill:url(#linearGradient5706);fill-opacity:1;stroke:none"
           id="path4572" /><path
           inkscape:connector-curvature="0"
           d="m 345.89167,170.46104 c -11.02791,0.091 -22.05568,0.19586 -33.08361,0.28674 l 44.76861,12.5094 -11.685,-12.79614 z"
           style="fill:url(#linearGradient5708);fill-opacity:1;stroke:none"
           id="path4580" /></g></g></g></g></svg>